<svg width="150" height="151" viewBox="0 0 150 151" fill="none" xmlns="http://www.w3.org/2000/svg">
<path d="M6.55553 46.5537C3.31358 53.7097 -1.48609 67.4208 0.443264 84.4687C2.91822 106.34 15.1665 123.586 27.0826 133.28C66.6265 165.438 139.017 144.666 148.6 114.374C150.34 108.878 149.85 103.58 149.249 97.0569C147.335 76.3164 137.254 70.1488 130.477 48.1272C124.31 28.0825 130.39 25.8289 124.618 16.9175C112.109 -2.41561 75.9886 -3.39611 51.1284 5.87113C41.5844 9.42937 18.4163 20.3492 6.55553 46.5458V46.5537Z" fill="#ECEFF4"/>
<path d="M149.723 25.6628L122.997 40.9711L79.5232 15.7709L106.392 0.264893L149.723 25.6628Z" fill="#FF1935"/>
<path d="M122.997 41.24C122.949 41.24 122.902 41.2242 122.862 41.2005L79.3887 16.0002C79.3017 15.9528 79.2543 15.8658 79.2543 15.763C79.2543 15.6681 79.3096 15.5732 79.3887 15.5258L106.257 0.0355824C106.344 -0.0118608 106.447 -0.0118608 106.526 0.0355824L149.858 25.4335C149.945 25.4809 149.992 25.5679 149.992 25.6707C149.992 25.7656 149.937 25.8526 149.858 25.9079L123.123 41.2084C123.084 41.2321 123.036 41.2479 122.989 41.2479L122.997 41.24ZM80.0608 15.7709L122.997 40.6549L149.186 25.6628L106.392 0.581179L80.0608 15.7709Z" fill="black"/>
<path d="M122.997 144.176V40.8684L149.739 25.6312V128.591L122.997 144.176Z" fill="#C4C6C9"/>
<path d="M122.997 144.445C122.949 144.445 122.902 144.429 122.862 144.405C122.775 144.358 122.728 144.271 122.728 144.168V40.8684C122.728 40.7735 122.783 40.6786 122.862 40.6312L149.597 25.394C149.684 25.3465 149.786 25.3465 149.866 25.394C149.953 25.4414 150 25.5284 150 25.6312V128.591C150 128.686 149.953 128.773 149.866 128.828L123.131 144.405C123.092 144.429 123.044 144.445 122.997 144.445ZM123.266 41.0265V143.701L149.462 128.441V26.0977L123.266 41.0265Z" fill="black"/>
<path d="M122.997 144.176V40.8683L79.6101 15.7234V118.825L122.997 144.176Z" fill="white"/>
<path d="M122.997 144.445C122.949 144.445 122.902 144.429 122.863 144.405L79.4678 119.063C79.3887 119.015 79.3334 118.928 79.3334 118.825V73.3116C79.3334 73.1614 79.452 73.0428 79.6022 73.0428C79.7525 73.0428 79.8711 73.1614 79.8711 73.3116V118.667L122.72 143.694V41.0265L79.8711 16.1979V38.86C79.8711 39.0102 79.7525 39.1288 79.6022 39.1288C79.452 39.1288 79.3334 39.0102 79.3334 38.86V15.7314C79.3334 15.6365 79.3887 15.5416 79.4678 15.4942C79.5548 15.4468 79.6576 15.4468 79.7366 15.4942L123.131 40.6391C123.218 40.6865 123.266 40.7735 123.266 40.8763V144.184C123.266 144.279 123.21 144.374 123.131 144.421C123.092 144.445 123.044 144.461 122.997 144.461V144.445Z" fill="black"/>
<path d="M142.346 73.9996L128.564 81.8356C128.16 82.0649 127.907 82.4919 127.907 82.9584C127.907 83.9468 128.975 84.5715 129.837 84.0812L143.619 76.2452C144.022 76.0159 144.267 75.5889 144.267 75.1224C144.267 74.134 143.2 73.5093 142.338 73.9996H142.346Z" fill="#A7A8AB"/>
<path d="M142.346 66.1478L128.564 73.9838C128.16 74.2131 127.907 74.6401 127.907 75.1066C127.907 76.095 128.975 76.7197 129.837 76.2294L143.619 68.3934C144.022 68.1641 144.267 67.7371 144.267 67.2706C144.267 66.2822 143.2 65.6575 142.338 66.1478H142.346Z" fill="#A7A8AB"/>
<path d="M142.346 58.3038L128.564 66.1398C128.16 66.3691 127.907 66.7961 127.907 67.2626C127.907 68.251 128.975 68.8757 129.837 68.3854L143.619 60.5494C144.022 60.3201 144.267 59.8931 144.267 59.4266C144.267 58.4382 143.2 57.8135 142.338 58.3038H142.346Z" fill="#A7A8AB"/>
<path d="M142.346 50.452L128.564 58.288C128.16 58.5173 127.907 58.9443 127.907 59.4108C127.907 60.3992 128.975 61.0239 129.837 60.5336L143.619 52.6976C144.022 52.4683 144.267 52.0413 144.267 51.5748C144.267 50.5864 143.2 49.9617 142.338 50.452H142.346Z" fill="#A7A8AB"/>
<path d="M142.346 42.6L128.564 50.4361C128.16 50.6654 127.907 51.0924 127.907 51.5589C127.907 52.5473 128.975 53.1719 129.837 52.6817L143.619 44.8457C144.022 44.6164 144.267 44.1894 144.267 43.7228C144.267 42.7344 143.2 42.1098 142.338 42.6H142.346Z" fill="#A7A8AB"/>
<path d="M131.054 25.3703C131.007 25.3703 130.959 25.3624 130.92 25.3308L111.864 14.4189C111.737 14.3477 111.69 14.1817 111.761 14.0472C111.832 13.9207 111.998 13.8733 112.132 13.9444L131.189 24.8564C131.315 24.9275 131.363 25.0936 131.291 25.228C131.244 25.315 131.149 25.3624 131.054 25.3624V25.3703Z" fill="black"/>
<path d="M109.452 12.9956C109.404 12.9956 109.357 12.9877 109.317 12.9561L105.048 10.5127C104.921 10.4416 104.874 10.2755 104.945 10.1411C105.016 10.0146 105.182 9.96714 105.316 10.0383L109.586 12.4816C109.713 12.5528 109.76 12.7188 109.689 12.8533C109.642 12.9402 109.547 12.9877 109.452 12.9877V12.9956Z" fill="black"/>
<path d="M128.311 26.7778C128.263 26.7778 128.216 26.7699 128.176 26.7383L102.77 12.1574C102.644 12.0862 102.596 11.9202 102.667 11.7858C102.739 11.6592 102.905 11.6118 103.039 11.683L128.445 26.2638C128.571 26.335 128.619 26.501 128.548 26.6355C128.5 26.7225 128.405 26.7699 128.311 26.7699V26.7778Z" fill="black"/>
<path d="M125.962 28.4305C125.915 28.4305 125.867 28.4226 125.828 28.3909L117.77 23.702C117.644 23.6229 117.596 23.4647 117.675 23.3303C117.747 23.2038 117.92 23.1564 118.047 23.2354L126.104 27.9244C126.231 28.0035 126.278 28.1616 126.199 28.296C126.152 28.383 126.057 28.4305 125.962 28.4305Z" fill="black"/>
<path d="M113.579 21.2191C113.532 21.2191 113.485 21.2033 113.445 21.1796L100.106 13.4147C99.9791 13.3357 99.9316 13.1775 100.011 13.0431C100.09 12.9166 100.256 12.8691 100.382 12.9482L113.722 20.7131C113.848 20.7921 113.896 20.9503 113.817 21.0847C113.769 21.1717 113.674 21.2191 113.579 21.2191Z" fill="black"/>
<path d="M123.685 29.996C123.637 29.996 123.59 29.9881 123.55 29.9565L97.599 14.9803C97.4725 14.9091 97.425 14.7431 97.4962 14.6086C97.5674 14.4821 97.7334 14.4347 97.8678 14.5058L123.819 29.4821C123.946 29.5532 123.993 29.7193 123.922 29.8537C123.875 29.9407 123.78 29.9881 123.685 29.9881V29.996Z" fill="black"/>
<path d="M61.6212 56.7382L35.907 41.841C34.1279 40.8052 31.8981 42.094 31.8981 44.1499V70.3544C31.8981 72.2679 32.9102 74.0391 34.5628 75.0038L68.1526 94.6216C69.9317 95.6653 72.1694 94.3764 72.1694 92.3127V65.9501C72.1694 64.0286 71.1494 62.2574 69.4889 61.2927L61.6212 56.7303V56.7382Z" fill="white"/>
<path d="M69.4968 95.262C68.9828 95.262 68.4768 95.1276 68.0103 94.8588L38.382 77.5499C38.2555 77.4708 38.208 77.3048 38.2871 77.1783C38.3662 77.0518 38.5243 77.0043 38.6587 77.0834L68.287 94.3922C69.0382 94.835 69.9396 94.835 70.6908 94.4001C71.442 93.9652 71.8927 93.1903 71.8927 92.3206V65.958C71.8927 64.1393 70.9201 62.4472 69.3466 61.5378L35.7647 42.0782C35.0135 41.6433 34.1121 41.6433 33.3609 42.0782C32.6097 42.5131 32.159 43.288 32.159 44.1578V54.4846C32.159 54.6348 32.0404 54.7535 31.8902 54.7535C31.7399 54.7535 31.6213 54.6348 31.6213 54.4846V44.1578C31.6213 43.0903 32.1748 42.1415 33.0921 41.6117C34.0172 41.0819 35.1163 41.0819 36.0336 41.6117L69.6154 61.0713C71.355 62.0755 72.4304 63.9495 72.4304 65.958V92.3206C72.4304 93.388 71.8769 94.3448 70.9517 94.8746C70.4931 95.1355 69.9871 95.2699 69.4889 95.2699L69.4968 95.262Z" fill="black"/>
<path d="M66.587 73.7465V66.7803C66.587 66.4323 66.4051 66.1161 66.1046 65.9421L38.9276 50.1989C38.2871 49.8272 37.4727 50.2938 37.4727 51.037V57.8768C37.4727 58.2168 37.6545 58.541 37.955 58.7149L65.132 74.5847C65.7725 74.9642 66.587 74.4977 66.587 73.7465Z" fill="#C4C6C9"/>
<path d="M61.4631 67.3021V67.2467C61.4631 66.7881 61.218 66.3611 60.8147 66.1318L44.4784 56.7776C43.6165 56.2873 42.5491 56.9041 42.5491 57.8925C42.5491 58.3511 42.7942 58.7781 43.1975 59.0074L59.5337 68.4249C60.3956 68.923 61.4631 68.2984 61.4631 67.31V67.3021Z" fill="white"/>
<path d="M66.587 85.0301V79.5583C66.587 78.9811 66.2786 78.4513 65.7805 78.1587L39.9002 63.1667C38.8248 62.542 37.4806 63.3169 37.4806 64.5662V69.9115C37.4806 70.4887 37.789 71.0185 38.2792 71.3032L64.1595 86.4217C65.2349 87.0464 66.587 86.2715 66.587 85.0301Z" fill="#C4C6C9"/>
<path d="M41.5054 69.8878C41.8286 69.8878 42.0906 69.4594 42.0906 68.931C42.0906 68.4026 41.8286 67.9742 41.5054 67.9742C41.1823 67.9742 40.9203 68.4026 40.9203 68.931C40.9203 69.4594 41.1823 69.8878 41.5054 69.8878Z" fill="white"/>
<path d="M44.9846 71.3585C44.9846 70.8287 45.2456 70.4017 45.5698 70.4017C45.8939 70.4017 46.1549 70.8287 46.1549 71.3585C46.1549 71.8883 45.8939 72.3153 45.5698 72.3153C45.2456 72.3153 44.9846 71.8883 44.9846 71.3585Z" fill="#FF1935"/>
<path d="M49.207 73.7623C49.207 73.2325 49.468 72.8055 49.7922 72.8055C50.1164 72.8055 50.3773 73.2325 50.3773 73.7623C50.3773 74.2921 50.1164 74.7191 49.7922 74.7191C49.468 74.7191 49.207 74.2921 49.207 73.7623Z" fill="white"/>
<path d="M53.1764 76.2055C53.1764 75.6758 53.4373 75.2488 53.7615 75.2488C54.0857 75.2488 54.3467 75.6758 54.3467 76.2055C54.3467 76.7353 54.0857 77.1623 53.7615 77.1623C53.4373 77.1623 53.1764 76.7353 53.1764 76.2055Z" fill="#FF1935"/>
<path d="M57.4069 78.4988C57.4069 77.969 57.6678 77.542 57.992 77.542C58.3162 77.542 58.5771 77.969 58.5771 78.4988C58.5771 79.0285 58.3162 79.4555 57.992 79.4555C57.6678 79.4555 57.4069 79.0285 57.4069 78.4988Z" fill="black"/>
<path d="M62.3962 82.0649C62.7193 82.0649 62.9813 81.6365 62.9813 81.1081C62.9813 80.5797 62.7193 80.1514 62.3962 80.1514C62.073 80.1514 61.811 80.5797 61.811 81.1081C61.811 81.6365 62.073 82.0649 62.3962 82.0649Z" fill="white"/>
<path d="M72.1694 51.3455V24.9829C72.1694 23.0614 71.1494 21.2902 69.4889 20.3255L35.907 0.86591C34.1279 -0.169933 31.8981 1.11894 31.8981 3.17481V29.3793C31.8981 31.2928 32.9102 33.064 34.5628 34.0287L68.1526 53.6465C69.9317 54.6902 72.1694 53.4013 72.1694 51.3376V51.3455Z" fill="white"/>
<path d="M69.4968 54.2869C68.9828 54.2869 68.4768 54.1525 68.0103 53.8837L34.4205 34.2659C32.6967 33.2538 31.6213 31.3877 31.6213 29.3872V3.18271C31.6213 2.11524 32.1748 1.16638 33.0921 0.636595C34.0172 0.106812 35.1163 0.106812 36.0336 0.636595L69.6154 20.0962C71.355 21.1004 72.4304 22.9744 72.4304 24.9829V51.3455C72.4304 52.4129 71.8769 53.3697 70.9517 53.8995C70.4931 54.1604 69.9871 54.2948 69.4889 54.2948L69.4968 54.2869ZM34.5628 0.778924C34.1516 0.778924 33.7405 0.889625 33.3609 1.10312C32.6097 1.53802 32.159 2.31292 32.159 3.18271V29.3872C32.159 31.1979 33.1316 32.8901 34.6893 33.7994L68.2791 53.4171C69.0303 53.8599 69.9317 53.8599 70.6829 53.425C71.4341 52.9902 71.8848 52.2152 71.8848 51.3455V24.9829C71.8848 23.1642 70.9122 21.4721 69.3387 20.5627L35.7647 1.10312C35.3852 0.881718 34.974 0.778924 34.5628 0.778924Z" fill="black"/>
<path d="M63.8036 30.7393V30.6681C63.8036 30.2253 63.5663 29.8141 63.1789 29.5927L56.9955 25.9871C56.1652 25.5047 55.1215 26.1057 55.1215 27.0624V27.0862C55.1215 27.529 55.3587 27.9401 55.7382 28.1615L61.9216 31.8226C62.7519 32.3049 63.7957 31.7119 63.7957 30.7472L63.8036 30.7393Z" fill="#A7A8AB"/>
<path d="M68.4846 39.1367V39.0892C68.4846 38.6464 68.2474 38.2353 67.86 38.0139L56.9955 31.7197C56.1652 31.2374 55.1215 31.8383 55.1215 32.7951C55.1215 33.2379 55.3587 33.6491 55.7382 33.8705L66.6027 40.22C67.433 40.7023 68.4767 40.1093 68.4767 39.1446L68.4846 39.1367Z" fill="#A7A8AB"/>
<path d="M51.8321 17.5896L43.9487 22.1758L36.0652 17.5896L44.0356 12.9481L51.8321 17.5896Z" fill="#FF1935"/>
<path d="M43.9487 22.3181C43.9487 22.3181 43.9012 22.3181 43.8775 22.3023L36.002 17.7082C35.9545 17.6845 35.9308 17.6371 35.9308 17.5817C35.9308 17.5264 35.9545 17.4868 36.002 17.4552L43.9724 12.8137C44.0199 12.79 44.0752 12.79 44.1147 12.8137L51.9112 17.4631C51.9587 17.4868 51.9824 17.5343 51.9824 17.5896C51.9824 17.6371 51.9587 17.6845 51.9112 17.7162L44.0278 22.3023C44.0278 22.3023 43.9803 22.3181 43.9566 22.3181H43.9487ZM36.3578 17.5817L43.9487 22.0098L51.5554 17.5896L44.0436 13.1142L36.3578 17.5896V17.5817Z" fill="black"/>
<path d="M43.9487 31.4667V22.1362L51.8638 17.5737V26.7935L43.9487 31.4667Z" fill="#C4C6C9"/>
<path d="M43.9487 31.6091C43.9487 31.6091 43.9013 31.6091 43.8776 31.5932C43.8301 31.5695 43.8064 31.5221 43.8064 31.4667V22.1441C43.8064 22.0967 43.8301 22.0493 43.8776 22.0176L51.7927 17.4552C51.8401 17.4314 51.8955 17.4314 51.935 17.4552C51.9824 17.4789 52.0062 17.5263 52.0062 17.5817V26.8015C52.0062 26.8489 51.9824 26.8964 51.935 26.928L44.0199 31.6011C44.0199 31.6011 43.9724 31.6249 43.9487 31.6249V31.6091ZM44.0911 22.2232V31.2137L51.7215 26.7145V17.8268L44.0911 22.2232Z" fill="black"/>
<path d="M43.9489 31.4668V22.1363L36.105 17.5739V26.8174L43.9489 31.4668Z" fill="white"/>
<path d="M43.9488 31.6091C43.9488 31.6091 43.9013 31.6091 43.8776 31.5854L36.0258 26.936C35.9783 26.9122 35.9546 26.8648 35.9546 26.8095V17.5659C35.9546 17.5185 35.9783 17.4711 36.0258 17.4394C36.0732 17.4157 36.1285 17.4157 36.1681 17.4394L44.0199 22.0098C44.0674 22.0335 44.0911 22.0809 44.0911 22.1363V31.4589C44.0911 31.5142 44.0674 31.5617 44.0199 31.5854C43.9962 31.6012 43.9725 31.6012 43.9488 31.6012V31.6091ZM36.2472 26.7383L43.8064 31.2138V22.2233L36.2472 17.819V26.7304V26.7383Z" fill="black"/>
<path d="M11.0626 136.261L10.0822 143.109H7.97884L7.86023 136.372L11.0626 136.261Z" fill="white"/>
<path d="M10.0822 143.377H7.97095C7.82071 143.377 7.7021 143.259 7.7021 143.109L7.5835 136.372C7.5835 136.221 7.6942 136.103 7.84443 136.095L11.0468 135.984C11.1259 135.984 11.205 136.016 11.2603 136.071C11.3157 136.134 11.3394 136.213 11.3236 136.293L10.351 143.14C10.3352 143.275 10.2166 143.369 10.0822 143.369V143.377ZM8.23979 142.84H9.84495L10.7385 136.546L8.12909 136.64L8.23979 142.848V142.84Z" fill="black"/>
<path d="M10.1692 149.656C9.15703 149.766 7.51234 149.838 5.58298 149.505C4.9504 149.395 4.55504 148.77 4.729 148.153C5.21134 146.437 6.25509 143.18 7.55978 141.693L7.84444 142.531L8.35841 141.677C8.42166 141.575 8.53236 141.503 8.65097 141.495H9.54449C9.74217 141.48 9.92403 141.622 9.95566 141.82L10.0822 142.539L10.7464 141.638L11.118 148.485C11.1734 149.071 10.7543 149.6 10.1612 149.664L10.1692 149.656Z" fill="white"/>
<path d="M8.44541 150.019C7.59933 150.019 6.61093 149.956 5.53556 149.774C5.15601 149.711 4.82391 149.49 4.61832 149.165C4.41273 148.841 4.35738 148.446 4.46018 148.082C4.96624 146.279 6.01789 143.029 7.35421 141.519C7.41747 141.448 7.51236 141.416 7.60724 141.432C7.70213 141.448 7.7812 141.519 7.81283 141.614L7.90772 141.899L8.12121 141.543C8.224 141.361 8.41378 141.25 8.61936 141.227C8.62727 141.227 8.63518 141.227 8.64309 141.227H9.52869C9.86079 141.211 10.1613 141.44 10.2166 141.772L10.2324 141.875L10.525 141.48C10.5962 141.385 10.7148 141.345 10.8176 141.385C10.9283 141.416 11.0073 141.519 11.0073 141.63L11.379 148.478C11.4501 149.197 10.9125 149.861 10.185 149.94C9.71056 149.988 9.11752 150.035 8.42959 150.035L8.44541 150.019ZM7.46491 142.247C6.34209 143.796 5.44067 146.604 4.98996 148.224C4.9267 148.446 4.95833 148.675 5.08485 148.873C5.20345 149.063 5.40904 149.197 5.63044 149.237C7.50445 149.561 9.11752 149.498 10.1375 149.387C10.5724 149.339 10.8966 148.944 10.8492 148.501L10.5171 142.389L10.2957 142.682C10.2324 142.769 10.1217 142.808 10.0189 142.784C9.91614 142.761 9.83707 142.674 9.81335 142.571L9.68683 141.851C9.67893 141.796 9.62358 141.756 9.56823 141.756C9.56032 141.756 9.55241 141.756 9.54451 141.756H8.66681C8.66681 141.756 8.60355 141.78 8.58773 141.804L8.07377 142.658C8.01842 142.745 7.91562 142.8 7.81283 142.784C7.71004 142.776 7.62306 142.705 7.58352 142.602L7.45701 142.231L7.46491 142.247Z" fill="black"/>
<path d="M7.77332 148.849C7.02214 148.849 6.18398 148.778 5.34581 148.557C5.20349 148.517 5.11651 148.367 5.15604 148.224C5.19558 148.082 5.34581 147.995 5.48814 148.035C7.79705 148.644 10.2641 148.035 10.2878 148.035C10.4301 147.995 10.5804 148.09 10.6199 148.232C10.6595 148.375 10.5646 148.525 10.4222 148.564C10.3511 148.58 9.23616 148.857 7.78123 148.857L7.77332 148.849Z" fill="black"/>
<path d="M9.18082 146.169H6.91936C6.76912 146.169 6.65051 146.05 6.65051 145.9C6.65051 145.749 6.76912 145.631 6.91936 145.631H9.18082C9.33105 145.631 9.44966 145.749 9.44966 145.9C9.44966 146.05 9.33105 146.169 9.18082 146.169Z" fill="black"/>
<path d="M28.9565 136.87L29.8342 144.856L33.1869 145.56L32.9813 136.198L28.9565 136.87Z" fill="white"/>
<path d="M33.187 145.829C33.187 145.829 33.1474 145.829 33.1316 145.829L29.7789 145.125C29.6682 145.101 29.5813 145.006 29.5655 144.888L28.6878 136.901C28.6719 136.759 28.7668 136.625 28.9092 136.601L32.9339 135.929C33.013 135.913 33.0921 135.937 33.1553 135.984C33.2186 136.031 33.2502 136.111 33.2502 136.19L33.4558 145.552C33.4558 145.631 33.4242 145.71 33.3609 145.765C33.3135 145.805 33.2502 145.829 33.187 145.829ZM30.0794 144.627L32.9102 145.22L32.7204 136.514L29.2571 137.091L30.0873 144.627H30.0794Z" fill="black"/>
<path d="M28.3557 148.137C28.3082 146.888 28.3557 144.666 29.1859 143.448L31.8665 144.405V143.828C31.8665 143.646 32.0009 143.488 32.167 143.48L33.6614 143.393C34.2228 143.361 34.7763 143.48 35.2903 143.725C36.8006 144.468 39.9635 146.192 40.8491 148.027C41.0942 148.533 40.77 149.134 40.2086 149.205C38.7695 149.387 35.4405 149.608 29.2966 149.11C28.7827 149.07 28.3794 148.651 28.3557 148.129V148.137Z" fill="white"/>
<path d="M36.0019 149.687C34.2782 149.687 32.0641 149.608 29.2729 149.387C28.6166 149.331 28.1105 148.802 28.0868 148.145C28.0394 146.888 28.0868 144.579 28.9645 143.29C29.0357 143.188 29.1622 143.148 29.2808 143.188L31.6055 144.018V143.828C31.6055 143.496 31.8506 143.227 32.159 143.211L33.6535 143.124C34.2544 143.093 34.8633 143.211 35.4168 143.488C37.1485 144.342 40.1927 146.05 41.0942 147.916C41.2523 148.24 41.2444 148.604 41.0704 148.92C40.8965 149.237 40.596 149.442 40.2402 149.49C39.4495 149.584 38.0815 149.703 36.0019 149.703V149.687ZM28.6245 148.122C28.6403 148.501 28.9408 148.81 29.3203 148.841C35.4405 149.339 38.7457 149.11 40.1769 148.936C40.3588 148.912 40.509 148.81 40.596 148.651C40.683 148.493 40.6909 148.311 40.6118 148.145C39.7499 146.366 36.5238 144.635 35.1796 143.97C34.7131 143.741 34.1991 143.63 33.693 143.662L32.1986 143.749C32.1986 143.749 32.1511 143.781 32.1511 143.828V144.405C32.1511 144.492 32.1116 144.579 32.0325 144.627C31.9614 144.674 31.8665 144.69 31.7874 144.658L29.3124 143.773C28.6245 144.967 28.5929 146.991 28.6324 148.13L28.6245 148.122Z" fill="black"/>
<path d="M35.2113 148.485C33.5587 148.485 31.5581 148.406 29.3678 148.153C29.2176 148.137 29.1148 148.003 29.1306 147.853C29.1464 147.703 29.2809 147.6 29.4311 147.616C35.1401 148.28 39.576 147.742 39.6156 147.734C39.7579 147.718 39.9002 147.821 39.916 147.971C39.9319 148.122 39.8291 148.256 39.6788 148.272C39.6551 148.272 37.9076 148.485 35.2113 148.485Z" fill="black"/>
<path d="M36.1759 146.477C36.1206 146.477 36.0652 146.461 36.0178 146.429L33.4321 144.571C33.3135 144.484 33.2819 144.318 33.3689 144.192C33.4558 144.073 33.6219 144.041 33.7484 144.128L36.3341 145.987C36.4527 146.074 36.4843 146.24 36.3973 146.366C36.342 146.437 36.2629 146.477 36.1759 146.477Z" fill="black"/>
<path d="M30.0003 85.0618C30.0003 85.0618 35.1795 118.248 34.1516 140.294L28.7984 140.436C28.7984 140.436 22.6941 106.791 19.8317 101.232C19.8317 101.232 11.964 131.904 11.6714 139.977C11.6714 139.977 8.20808 140.325 6.83223 139.827C6.08896 132.039 5.95453 123.088 5.915 118.027C5.8122 103.549 7.18806 96.9701 7.94715 93.8467C8.64298 90.9843 9.38626 88.6517 9.93185 87.0782L11.7505 81.8752L29.9924 85.0618H30.0003Z" fill="#2F3342"/>
<path d="M19.9345 102.062C19.9345 102.062 19.895 102.062 19.8713 102.062C19.7289 102.031 19.634 101.881 19.6736 101.738C20.3694 98.8521 22.4648 98.2986 22.5518 98.2749C22.6941 98.2354 22.8444 98.3302 22.8839 98.4726C22.9234 98.6149 22.8285 98.7651 22.6862 98.7968C22.6071 98.8126 20.8201 99.3107 20.2034 101.865C20.1717 101.991 20.061 102.07 19.9424 102.07L19.9345 102.062Z" fill="#CADDFF"/>
<path d="M21.0415 56.0818C21.0415 56.0818 25.1928 57.1018 27.6203 61.0633C29.4864 64.1076 30.9334 66.5825 33.3451 67.0095C36.7531 67.6184 39.3704 62.3443 39.3704 62.3443L42.6044 63.2773C42.6044 63.2773 41.3077 75.4781 34.1991 77.2573C28.9803 78.562 21.3103 71.6511 21.3103 71.6511L21.0415 56.0818Z" fill="#FF1935"/>
<path d="M9.05415 84.271L8.80112 88.2958C8.92763 89.2051 9.663 89.9088 10.5723 89.9879C11.6003 90.0828 14.8027 90.3833 16.9693 89.98C21.4289 89.1497 25.8332 86.3427 28.6719 86.0185C31.5106 85.6943 31.139 83.2984 30.4827 80.6811C29.9766 78.6411 25.7937 62.882 23.9276 58.6042C23.3504 57.2758 22.1722 56.3111 20.7647 56.0028C18.9381 55.6074 16.1785 55.1883 13.1105 55.3227C7.73364 55.5521 3.09212 58.7624 1.21021 63.7993L6.5871 73.4065C8.43739 76.7117 9.29927 80.4914 9.05415 84.271Z" fill="#FF1935"/>
<path d="M1.21024 63.7914C-1.48612 73.0032 1.88235 79.4713 11.8454 76.3085C28.4505 71.0264 27.7942 62.4076 27.7942 62.4076L26.9798 60.1066C26.6161 59.0787 25.43 58.6121 24.4653 59.1103L16.5976 64.0444C12.4701 65.9421 4.96616 67.7529 3.5903 64.3449L1.21814 63.7834L1.21024 63.7914Z" fill="#FF1935"/>
<path d="M7.89188 77.7081C7.75746 77.7081 7.64676 77.6132 7.62304 77.4787C7.59932 77.3285 7.70211 77.1941 7.84444 77.1704C14.4786 76.1266 19.2783 72.8768 22.1486 70.3306C25.5012 67.3575 27.3041 64.3686 27.4701 63.2853C27.4938 63.1351 27.6283 63.0323 27.7785 63.056C27.9287 63.0797 28.0315 63.2142 28.0078 63.3644C27.652 65.7128 20.5908 75.7075 7.93933 77.7001C7.92351 77.7001 7.9077 77.7001 7.89979 77.7001L7.89188 77.7081Z" fill="white"/>
<path d="M8.78535 67.2942C8.41371 67.2942 7.97091 67.1677 7.67043 66.7961C7.38577 66.4482 7.14856 65.7682 7.66252 64.5425C7.71788 64.4081 7.87602 64.3369 8.01835 64.4002C8.15277 64.4556 8.22394 64.6137 8.16068 64.756C7.84439 65.523 7.82067 66.124 8.08951 66.464C8.31092 66.7328 8.69046 66.7961 8.97512 66.7407C13.1976 65.9263 18.2819 63.3406 24.0779 59.0549C24.1965 58.968 24.3704 58.9917 24.4574 59.1103C24.5444 59.2289 24.5207 59.4029 24.4021 59.4898C18.5349 63.8309 13.3794 66.4482 9.07791 67.2705C8.99093 67.2863 8.88814 67.2942 8.78535 67.2942Z" fill="white"/>
<path d="M29.8343 77.5736C29.7157 77.5736 29.605 77.4945 29.5734 77.3759C28.7906 74.6875 27.0115 69.8403 26.9956 69.7929C26.9403 69.6506 27.0194 69.5003 27.1538 69.445C27.2961 69.3896 27.4463 69.4687 27.5017 69.6031C27.5175 69.6506 29.3045 74.5135 30.0874 77.2178C30.1269 77.3601 30.0478 77.5103 29.9055 77.5499C29.8818 77.5499 29.858 77.5578 29.8264 77.5578L29.8343 77.5736Z" fill="white"/>
<path d="M37.5596 62.4709L40.7383 62.4947L46.5026 54.5954L43.4346 54.4609L37.5596 62.4709Z" fill="#A7A8AB"/>
<path d="M40.6039 62.629L37.4252 62.6053C37.3224 62.6053 37.2275 62.5499 37.188 62.4551C37.1405 62.3681 37.1484 62.2574 37.2117 62.1704L43.0867 54.1683C43.1421 54.0972 43.2291 54.0576 43.316 54.0576L46.384 54.192C46.4868 54.192 46.5738 54.2553 46.6134 54.3423C46.6529 54.4293 46.645 54.54 46.5896 54.619L40.8253 62.5183C40.7778 62.5895 40.6909 62.629 40.6039 62.629ZM37.955 62.0676L40.4615 62.0913L45.8464 54.7139L43.4267 54.6032L37.955 62.0676Z" fill="black"/>
<path d="M39.9555 61.5378C39.9555 61.5378 40.6988 59.7192 42.4304 59.8299L44.091 57.5526C44.091 57.5526 45.3719 63.4672 41.8532 63.4751L40.762 63.2932C39.9476 63.1588 39.5285 62.2416 39.9634 61.5378H39.9555Z" fill="white"/>
<path d="M41.8532 63.7439C41.8532 63.7439 41.8216 63.7439 41.8058 63.7439L40.7146 63.5621C40.2402 63.483 39.8448 63.1746 39.6471 62.7397C39.4494 62.3127 39.4811 61.8146 39.7183 61.4113C39.8132 61.1978 40.5802 59.5531 42.2802 59.5531C42.2802 59.5531 42.296 59.5531 42.3039 59.5531L43.8775 57.3866C43.9407 57.2996 44.0435 57.26 44.1542 57.2838C44.257 57.3075 44.344 57.3866 44.3598 57.4893C44.3914 57.6396 45.1426 61.182 43.7905 62.8662C43.324 63.4435 42.6756 63.736 41.8611 63.7439H41.8532ZM42.2802 60.0908C40.849 60.0908 40.2085 61.6169 40.2006 61.6327C40.2006 61.6485 40.1848 61.6564 40.1848 61.6723C40.0267 61.9332 40.0108 62.2337 40.1374 62.5104C40.2639 62.7872 40.509 62.969 40.8016 63.0165L41.869 63.1983C42.5095 63.1983 42.9998 62.969 43.3556 62.5262C44.2412 61.4271 44.0751 59.2843 43.9249 58.2247L42.6439 59.988C42.5886 60.0592 42.5016 60.1066 42.4067 60.0987C42.3593 60.0987 42.3197 60.0987 42.2802 60.0987V60.0908Z" fill="black"/>
<path d="M38.5954 58.8414C38.6666 58.5726 38.5322 58.2958 38.2712 58.2009C37.5596 57.9163 33.9065 56.4534 33.2185 56.1846C32.5306 55.9157 32.0799 56.5404 31.3445 56.9041C30.704 57.2204 28.4347 58.4065 26.4579 58.9758C25.8569 59.1419 25.4379 59.6796 25.3983 60.2963C25.3746 60.6522 25.3983 61.0317 25.5248 61.3322C25.8569 62.1229 25.9834 62.8978 29.2333 60.747C29.2333 60.747 29.9845 60.8577 30.9492 60.5968C30.9492 60.5968 31.3603 64.1946 34.9739 59.8693C35.2981 59.4819 35.3772 58.9521 35.1479 58.5093C35.1321 58.4777 35.1084 58.4381 35.0925 58.3986L37.9075 59.2368C38.2001 59.3237 38.5084 59.1498 38.5875 58.8493L38.5954 58.8414Z" fill="white"/>
<path d="M26.3314 62.4076C26.2207 62.4076 26.1179 62.3918 26.023 62.368C25.6039 62.2415 25.4458 61.862 25.3113 61.5378L25.2718 61.435C25.1453 61.1345 25.0979 60.7471 25.1295 60.2805C25.1769 59.5452 25.683 58.9126 26.3867 58.7149C28.1263 58.2168 30.111 57.2205 30.965 56.8014C31.0757 56.746 31.1627 56.6986 31.2338 56.667C31.4394 56.5642 31.6213 56.4377 31.8032 56.319C32.2539 56.0186 32.7125 55.7023 33.3213 55.9395C34.0804 56.24 38.3266 57.9321 38.374 57.9558C38.7536 58.1061 38.9592 58.5252 38.8564 58.9205C38.801 59.134 38.6587 59.3159 38.461 59.4266C38.2633 59.5373 38.0419 59.561 37.8284 59.4977L35.5274 58.8098C35.5986 59.2368 35.4721 59.6875 35.1795 60.0433C33.7404 61.7671 32.6176 62.4788 31.7557 62.2257C31.1073 62.028 30.8385 61.3401 30.7357 60.9289C30.0557 61.0713 29.518 61.0476 29.2966 61.0317C27.8337 61.9885 26.9323 62.4234 26.3235 62.4234L26.3314 62.4076ZM32.8944 56.3902C32.665 56.3902 32.4436 56.5325 32.1115 56.7618C31.9218 56.8884 31.7162 57.0307 31.479 57.1493C31.4078 57.1809 31.3208 57.2284 31.218 57.2837C30.3561 57.7186 28.3319 58.7307 26.5449 59.2368C26.0625 59.3712 25.7146 59.8061 25.683 60.3122C25.6593 60.6917 25.6988 61.008 25.7858 61.2215L25.8332 61.3243C25.9518 61.6248 26.0309 61.7908 26.197 61.8462C26.6002 61.9727 27.5728 61.522 29.091 60.5099C29.1463 60.4703 29.2096 60.4545 29.2808 60.4703C29.2808 60.4703 29.9924 60.5652 30.8938 60.328C30.9729 60.3043 31.052 60.328 31.1152 60.3675C31.1785 60.415 31.2259 60.4861 31.2338 60.5573C31.2655 60.8261 31.4552 61.5536 31.9297 61.6959C32.2776 61.7987 33.1158 61.6801 34.7842 59.6875C35.0451 59.3791 35.1005 58.96 34.9265 58.62C34.9107 58.5884 34.8949 58.5568 34.8712 58.5172C34.8158 58.4224 34.8237 58.3037 34.8949 58.2168C34.966 58.1298 35.0767 58.0982 35.1795 58.1298L37.9945 58.968C38.0657 58.9917 38.1368 58.9838 38.208 58.9442C38.2712 58.9047 38.3187 58.8493 38.3424 58.7703C38.374 58.6359 38.3108 58.5014 38.1843 58.4461C37.0773 58.0033 33.7721 56.6828 33.1395 56.4377C33.0604 56.406 32.9813 56.3902 32.9102 56.3902H32.8944Z" fill="black"/>
<path d="M30.9096 60.8657C30.7989 60.8657 30.6961 60.8024 30.6566 60.6917C30.6013 60.5494 30.6724 60.3991 30.8147 60.3438C31.9534 59.9089 32.586 60.0117 32.6176 60.0117C32.7678 60.0354 32.8627 60.1777 32.839 60.3201C32.8153 60.4703 32.6729 60.5652 32.5306 60.5415C32.5148 60.5415 31.985 60.4703 31.0124 60.8419C30.9808 60.8578 30.9492 60.8578 30.9175 60.8578L30.9096 60.8657Z" fill="black"/>
<path d="M24.916 49.2975L24.323 47.803C24.149 47.2574 24.1806 46.0872 23.896 46.0714C23.896 46.0714 17.9577 43.4066 16.7874 46.0951C16.6214 46.4825 16.6055 46.9253 16.74 47.3286L17.0088 48.1747C17.2539 48.9575 16.6214 52.4446 15.1585 54.5558C14.7948 54.9907 14.352 55.3544 13.8459 55.6075L13.5771 55.7419C13.1343 55.9712 13.2213 56.6275 13.7036 56.7303C15.6962 57.1573 19.2386 57.8531 21.0415 57.8531C23.2555 57.8531 21.0336 56.24 20.3298 55.7656C20.567 54.706 21.0494 52.3102 21.0494 52.3102C21.1205 52.0887 21.3182 51.9306 21.5554 51.9227L23.0894 52.1362C23.3108 52.1362 23.5085 51.978 23.5639 51.7566L24.0699 49.7798L24.8607 49.4398C24.9239 49.4161 24.9555 49.3449 24.9239 49.2817L24.916 49.2975Z" fill="white"/>
<path d="M21.0336 58.1299C19.1991 58.1299 15.6171 57.4261 13.6403 57.0071C13.3082 56.9359 13.0631 56.6671 13.0157 56.327C12.9682 55.987 13.1422 55.6628 13.4427 55.5126L13.7115 55.3782C14.178 55.141 14.5892 54.8089 14.9292 54.3977C16.3604 52.326 16.9535 48.9417 16.7321 48.2617L16.4632 47.4156C16.313 46.9333 16.3367 46.4272 16.5265 45.9923C16.7558 45.4626 17.167 45.083 17.7442 44.8616C19.8317 44.0551 23.5243 45.6286 23.9592 45.8184C24.3072 45.8816 24.3704 46.3719 24.4495 46.9807C24.4811 47.2496 24.5207 47.5342 24.576 47.7161L25.1611 49.2027C25.2402 49.4003 25.1453 49.6297 24.9476 49.7087L24.2755 49.9934L23.8011 51.8437C23.7141 52.1758 23.4136 52.413 23.0736 52.4209C23.0578 52.4209 23.042 52.4209 23.0262 52.4209L21.5238 52.2074C21.421 52.2153 21.3261 52.2865 21.2945 52.3893C21.255 52.5869 20.8596 54.5875 20.6224 55.6549C22.449 56.9201 22.2908 57.4499 22.2355 57.6238C22.1011 58.0745 21.4843 58.1299 21.0336 58.1299ZM19.1675 45.1621C18.7168 45.1621 18.3056 45.2174 17.9419 45.3598C17.4991 45.5337 17.2065 45.8026 17.0325 46.2058C16.8902 46.5221 16.8823 46.8938 16.993 47.2496L17.2618 48.0957C17.5465 49.005 16.8744 52.5632 15.3799 54.714C15.3799 54.714 15.372 54.7298 15.3641 54.7298C14.9688 55.2042 14.5022 55.5759 13.9645 55.8526L13.6957 55.987C13.5455 56.0661 13.5534 56.2084 13.5534 56.248C13.5534 56.2875 13.5929 56.4298 13.751 56.4694C15.7041 56.8885 19.2466 57.5843 21.0257 57.5843C21.6187 57.5843 21.7136 57.4578 21.7136 57.4578C21.7373 57.3392 21.3973 56.8252 20.1638 55.9949C20.0689 55.9317 20.0294 55.821 20.0531 55.7103C20.2903 54.6665 20.7647 52.2865 20.7647 52.2627C20.7647 52.2548 20.7647 52.2469 20.7647 52.239C20.8675 51.899 21.1759 51.6697 21.5238 51.6618C21.5396 51.6618 21.5555 51.6618 21.5713 51.6618L23.0736 51.8753C23.1685 51.8674 23.2476 51.7962 23.2713 51.7013L23.7774 49.7245C23.8011 49.6455 23.8565 49.5743 23.9355 49.5427L24.5997 49.258L24.062 47.898C24.062 47.898 24.062 47.8901 24.062 47.8822C23.9909 47.6529 23.9513 47.3366 23.9118 47.044C23.8802 46.8068 23.8406 46.451 23.7853 46.3244C23.7537 46.3086 21.1759 45.17 19.1675 45.17V45.1621Z" fill="black"/>
<path d="M25.43 41.9201C24.157 41.4536 23.8802 42.5448 21.176 40.4414C19.555 39.1763 18.9619 41.2954 18.3056 41.1136C16.3763 40.5838 15.5302 40.6075 14.9372 42.2048C14.5418 43.2643 15.3721 45.3597 15.8544 47.4709C16.1074 48.5621 17.4912 49.4319 18.7564 47.9612C19.1517 47.5026 18.5745 46.7988 19.041 46.53C20.2666 45.8421 20.1638 47.4156 21.0336 47.1942C21.8718 46.9807 22.2513 46.7909 23.2081 46.3639C24.3626 45.85 25.2561 46.9095 26.371 45.2965C26.9561 44.4583 27.1775 42.5606 25.43 41.9201Z" fill="black"/>
<path d="M20.3693 10.1568C20.2191 10.1568 20.1005 10.0382 20.1005 9.888V9.0103C20.1005 8.86006 20.2191 8.74146 20.3693 8.74146C20.5195 8.74146 20.6382 8.86006 20.6382 9.0103V9.888C20.6382 10.0382 20.5195 10.1568 20.3693 10.1568Z" fill="black"/>
<path d="M20.3693 13.47C20.2191 13.47 20.1005 13.3513 20.1005 13.2011V12.3234C20.1005 12.1732 20.2191 12.0546 20.3693 12.0546C20.5195 12.0546 20.6382 12.1732 20.6382 12.3234V13.2011C20.6382 13.3513 20.5195 13.47 20.3693 13.47Z" fill="black"/>
<path d="M19.1517 11.3746H18.274C18.1237 11.3746 18.0051 11.256 18.0051 11.1058C18.0051 10.9555 18.1237 10.8369 18.274 10.8369H19.1517C19.3019 10.8369 19.4205 10.9555 19.4205 11.1058C19.4205 11.256 19.3019 11.3746 19.1517 11.3746Z" fill="black"/>
<path d="M22.4727 11.3746H21.595C21.4448 11.3746 21.3262 11.256 21.3262 11.1058C21.3262 10.9555 21.4448 10.8369 21.595 10.8369H22.4727C22.623 10.8369 22.7416 10.9555 22.7416 11.1058C22.7416 11.256 22.623 11.3746 22.4727 11.3746Z" fill="black"/>
<path d="M10.2561 23.1167C9.39417 23.1167 8.69043 22.413 8.69043 21.5511C8.69043 20.6892 9.39417 19.9855 10.2561 19.9855C11.1179 19.9855 11.8217 20.6892 11.8217 21.5511C11.8217 22.413 11.1179 23.1167 10.2561 23.1167ZM10.2561 20.5311C9.69464 20.5311 9.23603 20.9897 9.23603 21.5511C9.23603 22.1125 9.69464 22.5711 10.2561 22.5711C10.8175 22.5711 11.2761 22.1125 11.2761 21.5511C11.2761 20.9897 10.8175 20.5311 10.2561 20.5311Z" fill="black"/>
<path d="M95.5826 139.598C94.7207 139.598 94.017 138.894 94.017 138.032C94.017 137.17 94.7207 136.466 95.5826 136.466C96.4445 136.466 97.1482 137.17 97.1482 138.032C97.1482 138.894 96.4445 139.598 95.5826 139.598ZM95.5826 137.012C95.0212 137.012 94.5626 137.471 94.5626 138.032C94.5626 138.593 95.0212 139.052 95.5826 139.052C96.144 139.052 96.6026 138.593 96.6026 138.032C96.6026 137.471 96.144 137.012 95.5826 137.012Z" fill="black"/>
<path d="M99.2279 41.2163V34.0445C99.2279 32.3998 98.3502 30.8816 96.9348 30.0593L85.9754 23.7651C84.4019 22.8558 82.433 23.9865 82.433 25.8052V32.8505C82.433 34.4873 83.3028 35.9976 84.7182 36.8278L95.6854 43.2564C97.259 44.1736 99.2358 43.0429 99.2358 41.2163H99.2279Z" fill="#C4C6C9"/>
<path d="M118.925 52.0491V44.8772C118.925 43.2326 118.047 41.7144 116.632 40.892L105.672 34.5979C104.099 33.6886 102.13 34.8193 102.13 36.6379V43.6833C102.13 45.3201 103 46.8303 104.415 47.6606L115.382 54.0891C116.956 55.0064 118.933 53.8756 118.933 52.0491H118.925Z" fill="#C4C6C9"/>
<path d="M99.2279 59.2052V52.0334C99.2279 50.3887 98.3502 48.8705 96.9348 48.0481L85.9754 41.754C84.4019 40.8447 82.433 41.9754 82.433 43.7941V50.8394C82.433 52.4762 83.3028 53.9865 84.7182 54.8167L95.6854 61.2453C97.259 62.1625 99.2358 61.0318 99.2358 59.2052H99.2279Z" fill="#C4C6C9"/>
<path d="M116.568 68.1403V66.1318C116.568 65.6732 116.323 65.2462 115.928 65.0169L112.86 63.2536C112.417 63.0006 111.864 63.3169 111.864 63.8229V65.7997C111.864 66.2583 112.109 66.6853 112.504 66.9146L115.58 68.7175C116.023 68.9784 116.576 68.6542 116.576 68.1482L116.568 68.1403Z" fill="#2F3342"/>
<path d="M110.235 64.5821V55.8446C110.235 55.1962 109.887 54.5953 109.325 54.2711L104.984 51.7803C104.36 51.4166 103.585 51.8673 103.585 52.5869V61.2769C103.585 61.9253 103.925 62.5262 104.486 62.8504L108.827 65.3965C109.452 65.7603 110.235 65.3095 110.235 64.59V64.5821Z" fill="#2F3342"/>
<path d="M99.2279 77.1071V69.9352C99.2279 68.2905 98.3502 66.7724 96.9348 65.95L85.9754 59.6559C84.4019 58.7465 82.433 59.8773 82.433 61.6959V68.7413C82.433 70.378 83.3028 71.8883 84.7182 72.7186L95.6854 79.1471C97.259 80.0644 99.2358 78.9336 99.2358 77.1071H99.2279Z" fill="#C4C6C9"/>
<path d="M118.925 87.9399V80.7681C118.925 79.1234 118.047 77.6052 116.632 76.7829L105.672 70.4888C104.099 69.5794 102.13 70.7102 102.13 72.5288V79.5741C102.13 81.2109 103 82.7212 104.415 83.5514L115.382 89.98C116.956 90.8972 118.933 89.7665 118.933 87.9399H118.925Z" fill="#C4C6C9"/>
<path d="M99.2279 95.0089V87.8371C99.2279 86.1924 98.3502 84.6742 96.9348 83.8519L85.9754 77.5577C84.4019 76.6484 82.433 77.7791 82.433 79.5978V86.6431C82.433 88.2799 83.3028 89.7902 84.7182 90.6204L95.6854 97.049C97.259 97.9662 99.2358 96.8355 99.2358 95.0089H99.2279Z" fill="#C4C6C9"/>
<path d="M118.925 105.842V98.67C118.925 97.0253 118.047 95.5071 116.632 94.6847L105.672 88.3906C104.099 87.4813 102.13 88.612 102.13 90.4307V97.476C102.13 99.1128 103 100.623 104.415 101.453L115.382 107.882C116.956 108.799 118.933 107.668 118.933 105.842H118.925Z" fill="#C4C6C9"/>
<path d="M99.2279 121.901V105.739C99.2279 104.094 98.3502 102.576 96.9348 101.754L85.9754 95.4597C84.4019 94.5504 82.433 95.6811 82.433 97.4998V113.528C82.433 115.164 83.3028 116.675 84.7182 117.505L95.6854 123.934C97.259 124.851 99.2358 123.72 99.2358 121.893L99.2279 121.901Z" fill="#C4C6C9"/>
<path d="M118.925 132.821V116.659C118.925 115.014 118.047 113.496 116.632 112.674L105.672 106.38C104.099 105.47 102.13 106.601 102.13 108.42V124.447C102.13 126.084 103 127.595 104.415 128.425L115.382 134.853C116.956 135.771 118.933 134.64 118.933 132.813L118.925 132.821Z" fill="#C4C6C9"/>
</svg>
