<svg width="30" height="30" viewBox="0 0 30 30" fill="none" xmlns="http://www.w3.org/2000/svg">
<path d="M16.395 18.8372H14.9997C14.4276 18.8372 13.9532 18.3628 13.9532 17.7907C13.9532 17.2186 14.4276 16.7442 14.9997 16.7442H16.395C17.3578 16.7442 18.1392 15.9628 18.1392 15V2.09302H6.62756C4.98105 2.09302 3.47403 2.98602 2.66473 4.42323C2.38566 4.92555 1.74386 5.10701 1.24153 4.82794C0.739206 4.54887 0.557755 3.90698 0.836825 3.40465C2.00892 1.31163 4.22756 0 6.62756 0H19.1857C19.7578 0 20.2322 0.474419 20.2322 1.04651V15C20.2322 17.1209 18.516 18.8372 16.395 18.8372Z" fill="white"/>
<path d="M24.7674 27.2093H23.3721C22.8 27.2093 22.3256 26.7349 22.3256 26.1628C22.3256 25.2 21.5442 24.4186 20.5814 24.4186C19.6186 24.4186 18.8372 25.2 18.8372 26.1628C18.8372 26.7349 18.3628 27.2093 17.7907 27.2093H12.2093C11.6372 27.2093 11.1628 26.7349 11.1628 26.1628C11.1628 25.2 10.3814 24.4186 9.4186 24.4186C8.45581 24.4186 7.67442 25.2 7.67442 26.1628C7.67442 26.7349 7.2 27.2093 6.62791 27.2093H5.23256C2.34419 27.2093 0 24.8651 0 21.9767C0 21.4046 0.474419 20.9302 1.04651 20.9302C1.6186 20.9302 2.09302 21.4046 2.09302 21.9767C2.09302 23.707 3.50233 25.1163 5.23256 25.1163H5.7209C6.18137 23.5116 7.66046 22.3256 9.4186 22.3256C11.1767 22.3256 12.6558 23.5116 13.1163 25.1163H16.8977C17.3581 23.5116 18.8372 22.3256 20.5953 22.3256C22.3535 22.3256 23.8326 23.5116 24.293 25.1163H24.7674C26.4977 25.1163 27.907 23.707 27.907 21.9767V18.8372H24.7674C23.4279 18.8372 22.3256 17.7349 22.3256 16.3953V12.2093C22.3256 10.8698 23.414 9.76743 24.7674 9.76743L23.2744 7.15813C22.9674 6.61394 22.3814 6.27906 21.7535 6.27906H20.2326V15C20.2326 17.1209 18.5163 18.8372 16.3953 18.8372H15C14.4279 18.8372 13.9535 18.3628 13.9535 17.7907C13.9535 17.2186 14.4279 16.7442 15 16.7442H16.3953C17.3581 16.7442 18.1395 15.9628 18.1395 15V5.23255C18.1395 4.66045 18.614 4.18604 19.186 4.18604H21.7535C23.1349 4.18604 24.4046 4.92558 25.0884 6.12558L27.4744 10.2977C27.6558 10.6186 27.6558 11.0232 27.4744 11.3442C27.293 11.6651 26.9442 11.8605 26.5674 11.8605H24.7674C24.5721 11.8605 24.4186 12.0139 24.4186 12.2093V16.3953C24.4186 16.5907 24.5721 16.7442 24.7674 16.7442H28.9535C29.5256 16.7442 30 17.2186 30 17.7907V21.9767C30 24.8651 27.6558 27.2093 24.7674 27.2093Z" fill="white"/>
<path d="M9.41863 30C7.2977 30 5.58142 28.2837 5.58142 26.1628C5.58142 24.0418 7.2977 22.3256 9.41863 22.3256C11.5396 22.3256 13.2558 24.0418 13.2558 26.1628C13.2558 28.2837 11.5396 30 9.41863 30ZM9.41863 24.4186C8.45584 24.4186 7.67444 25.2 7.67444 26.1628C7.67444 27.1256 8.45584 27.907 9.41863 27.907C10.3814 27.907 11.1628 27.1256 11.1628 26.1628C11.1628 25.2 10.3814 24.4186 9.41863 24.4186Z" fill="white"/>
<path d="M20.5813 30C18.4604 30 16.7441 28.2837 16.7441 26.1628C16.7441 24.0418 18.4604 22.3256 20.5813 22.3256C22.7023 22.3256 24.4186 24.0418 24.4186 26.1628C24.4186 28.2837 22.7023 30 20.5813 30ZM20.5813 24.4186C19.6186 24.4186 18.8372 25.2 18.8372 26.1628C18.8372 27.1256 19.6186 27.907 20.5813 27.907C21.5441 27.907 22.3255 27.1256 22.3255 26.1628C22.3255 25.2 21.5441 24.4186 20.5813 24.4186Z" fill="white"/>
<path d="M28.9535 18.8372H24.7674C23.4279 18.8372 22.3256 17.7349 22.3256 16.3954V12.2093C22.3256 10.8698 23.4279 9.76746 24.7674 9.76746H26.5674C26.9442 9.76746 27.293 9.96281 27.4744 10.2977L29.8604 14.4837C29.9442 14.6372 30 14.8186 30 15V17.7907C30 18.3628 29.5256 18.8372 28.9535 18.8372ZM24.7674 11.8605C24.5721 11.8605 24.4186 12.014 24.4186 12.2093V16.3954C24.4186 16.5907 24.5721 16.7442 24.7674 16.7442H27.907V15.2791L25.9535 11.8605H24.7674Z" fill="white"/>
<path d="M9.4186 10.4651H1.04651C0.474419 10.4651 0 9.99068 0 9.41858C0 8.84649 0.474419 8.37207 1.04651 8.37207H9.4186C9.9907 8.37207 10.4651 8.84649 10.4651 9.41858C10.4651 9.99068 9.9907 10.4651 9.4186 10.4651Z" fill="white"/>
<path d="M6.62791 14.6511H1.04651C0.474419 14.6511 0 14.1767 0 13.6046C0 13.0325 0.474419 12.5581 1.04651 12.5581H6.62791C7.2 12.5581 7.67442 13.0325 7.67442 13.6046C7.67442 14.1767 7.2 14.6511 6.62791 14.6511Z" fill="white"/>
<path d="M3.83721 18.8372H1.04651C0.474419 18.8372 0 18.3627 0 17.7907C0 17.2186 0.474419 16.7441 1.04651 16.7441H3.83721C4.4093 16.7441 4.88372 17.2186 4.88372 17.7907C4.88372 18.3627 4.4093 18.8372 3.83721 18.8372Z" fill="white"/>
</svg>
