<svg width="32" height="33" viewBox="0 0 32 33" fill="none" xmlns="http://www.w3.org/2000/svg">
<path d="M1 8.46206L15.509 14.9106L16.491 12.7007L1.98209 6.25232L1 8.46206ZM17.2091 31.5388V13.8056H14.7909V31.5388H17.2091ZM16.491 14.9106L31 8.46206L30.0179 6.25232L15.509 12.7007L16.491 14.9106Z" fill="white"/>
<path d="M1.49109 24.4618V7.98579C1.49109 7.60354 1.7162 7.25715 2.06551 7.10191L15.6072 1.08337C15.8574 0.972211 16.1427 0.972211 16.3929 1.08337L29.9346 7.10191C30.2839 7.25715 30.509 7.60354 30.509 7.98579V24.4618C30.509 24.844 30.2839 25.1905 29.9346 25.3457L16.3929 31.3642C16.1427 31.4753 15.8574 31.4753 15.6072 31.3642L2.06551 25.3457C1.7162 25.1905 1.49109 24.844 1.49109 24.4618Z" stroke="white" stroke-width="1.97877" stroke-linecap="round" stroke-linejoin="round"/>
<path d="M8.74561 4.13281L22.6802 10.3259C23.0295 10.4812 23.2546 10.8276 23.2546 11.2098V17.0297" stroke="white" stroke-width="1.97877" stroke-linecap="round" stroke-linejoin="round"/>
</svg>
