<svg width="200" height="43" viewBox="0 0 200 43" fill="none" xmlns="http://www.w3.org/2000/svg">
<path d="M108.625 21.0842L112.109 25.4043L115.64 21.0842H115.791V28.9812H118.322V17.6002H115.547L112.132 21.8391L108.706 17.6002H105.931V29.0045H108.463V21.0842H108.625Z" fill="#1A1D2E"/>
<path d="M124.106 29.34C124.686 29.3421 125.259 29.2234 125.79 28.9916C126.302 28.7664 126.767 28.4473 127.161 28.0509C127.552 27.6687 127.868 27.2155 128.09 26.7154C128.318 26.2039 128.433 25.6494 128.427 25.0895C128.432 24.526 128.317 23.9678 128.09 23.452C127.865 22.95 127.55 22.4935 127.161 22.1049C126.762 21.7198 126.298 21.4091 125.79 21.1874C125.257 20.9645 124.685 20.85 124.106 20.8506C123.536 20.85 122.971 20.9645 122.446 21.1874C121.931 21.4034 121.462 21.7147 121.064 22.1049C120.674 22.4935 120.36 22.95 120.135 23.452C119.904 23.967 119.785 24.5252 119.786 25.0895C119.784 25.6502 119.903 26.2047 120.135 26.7154C120.357 27.2155 120.672 27.6687 121.064 28.0509C121.459 28.4484 121.928 28.7641 122.446 28.9799C122.968 29.2159 123.534 29.3386 124.106 29.34ZM124.106 27.296C123.842 27.2896 123.581 27.2304 123.34 27.1218C123.091 27.0129 122.869 26.8503 122.69 26.6457C122.507 26.438 122.358 26.2029 122.248 25.9489C122.116 25.685 122.04 25.3961 122.028 25.1011C122.026 24.802 122.085 24.5056 122.202 24.2301C122.317 23.9791 122.465 23.7447 122.643 23.5333C122.828 23.3356 123.049 23.1741 123.293 23.0572C123.534 22.947 123.796 22.8915 124.06 22.8946C124.324 22.8903 124.586 22.9459 124.826 23.0572C125.073 23.1711 125.294 23.333 125.477 23.5333C125.666 23.7411 125.822 23.976 125.941 24.2301C126.054 24.5064 126.109 24.8027 126.104 25.1011C126.11 25.392 126.054 25.6808 125.941 25.9489C125.828 26.2062 125.671 26.4419 125.477 26.6457C125.297 26.8495 125.075 27.0119 124.826 27.1218C124.6 27.2256 124.355 27.2848 124.106 27.296Z" fill="#1A1D2E"/>
<path d="M133.571 29.3438C134.097 29.3507 134.62 29.2642 135.116 29.0884C135.538 28.9399 135.93 28.7199 136.277 28.438C136.608 28.1829 136.888 27.8677 137.102 27.5089C137.308 27.1677 137.457 26.795 137.543 26.4057L135.22 26.0805C135.096 26.4105 134.888 26.7025 134.617 26.9283C134.307 27.1841 133.914 27.3165 133.513 27.2999C133.267 27.3067 133.023 27.2507 132.805 27.1373C132.576 27.0279 132.37 26.8739 132.201 26.6844C132.017 26.4888 131.878 26.2548 131.795 25.9992C131.682 25.7148 131.627 25.4109 131.632 25.105C131.625 24.7952 131.68 24.4872 131.795 24.1992C131.883 23.9426 132.021 23.7059 132.201 23.5024C132.377 23.3236 132.581 23.1746 132.805 23.0611C133.023 22.9477 133.267 22.8917 133.513 22.8985C133.865 22.8841 134.212 22.9862 134.5 23.1888C134.728 23.3794 134.918 23.612 135.058 23.874L137.381 23.5488C137.298 23.1983 137.148 22.8671 136.939 22.5733C136.724 22.2464 136.457 21.9563 136.15 21.7139C135.795 21.4492 135.404 21.2379 134.988 21.0868C134.523 20.938 134.037 20.8635 133.548 20.8662C133 20.8668 132.458 20.9815 131.957 21.2029C131.467 21.4255 131.022 21.7365 130.645 22.1204C130.262 22.5119 129.951 22.9679 129.727 23.4675C129.5 23.9833 129.385 24.5415 129.391 25.105C129.385 25.6649 129.499 26.2195 129.727 26.7309C129.958 27.2258 130.277 27.6744 130.668 28.0548C131.042 28.4458 131.487 28.7612 131.98 28.9838C132.478 29.2184 133.021 29.3413 133.571 29.3438Z" fill="#1A1D2E"/>
<path d="M144.405 25.1034V24.9408C144.55 24.903 144.688 24.8402 144.811 24.755C144.924 24.6702 145.019 24.5636 145.09 24.4415C145.197 24.3016 145.254 24.1299 145.253 23.9537V23.6285C145.251 23.5534 145.265 23.4787 145.293 23.4089C145.321 23.3392 145.363 23.2758 145.416 23.2226C145.469 23.1695 145.532 23.1276 145.602 23.0996C145.672 23.0715 145.747 23.0579 145.822 23.0595H146.147V21.0852H145.659C144.953 21.024 144.246 21.1997 143.65 21.5846C143.453 21.7527 143.298 21.9636 143.195 22.2011C143.092 22.4386 143.045 22.6965 143.058 22.955V23.4079C143.07 23.4971 143.061 23.5878 143.031 23.6729C143.002 23.758 142.953 23.8352 142.889 23.8982C142.825 23.9613 142.747 24.0086 142.661 24.0364C142.576 24.0641 142.485 24.0716 142.396 24.0582H140.979V21.1898H138.656V29.0055H140.979V26.0789H142.535C142.623 26.0671 142.712 26.0758 142.796 26.1045C142.88 26.1332 142.955 26.181 143.017 26.2441C143.079 26.3073 143.126 26.384 143.153 26.4682C143.18 26.5524 143.187 26.6418 143.174 26.7293V27.2983C143.163 27.5589 143.212 27.8186 143.319 28.0565C143.426 28.2945 143.587 28.5041 143.789 28.6687C144.378 29.0602 145.082 29.2403 145.787 29.1797H146.275V27.1358H145.95C145.874 27.1373 145.8 27.1237 145.73 27.0957C145.66 27.0676 145.597 27.0258 145.544 26.9726C145.49 26.9194 145.449 26.8561 145.421 26.7863C145.393 26.7166 145.379 26.6419 145.38 26.5667V26.1602C145.391 25.9809 145.346 25.8026 145.253 25.6493C145.149 25.5287 145.032 25.4197 144.904 25.3241C144.75 25.2262 144.581 25.1518 144.405 25.1034Z" fill="#1A1D2E"/>
<path d="M151.257 29.34C151.836 29.3411 152.41 29.2225 152.941 28.9916C153.453 28.7664 153.917 28.4473 154.311 28.0509C154.699 27.6656 155.014 27.2131 155.24 26.7154C155.463 26.2023 155.578 25.6488 155.577 25.0895C155.577 24.5265 155.462 23.9695 155.24 23.452C155.011 22.9524 154.697 22.4965 154.311 22.1049C153.913 21.7198 153.449 21.4091 152.941 21.1874C152.407 20.9657 151.835 20.8513 151.257 20.8507C150.686 20.849 150.121 20.9636 149.596 21.1874C149.082 21.4034 148.613 21.7147 148.214 22.1049C147.821 22.4905 147.506 22.9478 147.285 23.452C147.054 23.967 146.936 24.5252 146.937 25.0895C146.935 25.6502 147.054 26.2047 147.285 26.7154C147.503 27.2178 147.819 27.6718 148.214 28.0509C148.609 28.4484 149.079 28.7641 149.596 28.98C150.118 29.217 150.684 29.3397 151.257 29.34ZM151.257 27.296C150.993 27.2896 150.732 27.2304 150.491 27.1218C150.261 27.0083 150.059 26.8458 149.898 26.6457C149.716 26.438 149.567 26.2029 149.457 25.9489C149.34 25.6815 149.281 25.3928 149.283 25.1011C149.281 24.802 149.34 24.5056 149.457 24.2301C149.572 23.9791 149.721 23.7447 149.898 23.5333C150.081 23.333 150.302 23.1712 150.549 23.0572C150.789 22.947 151.051 22.8915 151.315 22.8946C151.58 22.8903 151.842 22.9459 152.082 23.0572C152.328 23.1712 152.549 23.333 152.732 23.5333C152.921 23.7411 153.077 23.976 153.196 24.2301C153.304 24.508 153.359 24.8032 153.359 25.1011C153.358 25.3914 153.303 25.6789 153.196 25.9489C153.083 26.2062 152.926 26.4419 152.732 26.6457C152.552 26.8495 152.33 27.012 152.082 27.1218C151.823 27.2396 151.541 27.2991 151.257 27.296Z" fill="#1A1D2E"/>
<path d="M159.192 22.9764H160.655C160.731 22.9748 160.805 22.9884 160.875 23.0165C160.945 23.0445 161.008 23.0863 161.061 23.1395C161.114 23.1927 161.156 23.256 161.184 23.3258C161.212 23.3955 161.226 23.4702 161.224 23.5454C161.228 23.6209 161.216 23.6963 161.188 23.7665C161.16 23.8367 161.117 23.8999 161.062 23.9519C161.009 24.0061 160.946 24.0487 160.876 24.0767C160.806 24.1047 160.731 24.1176 160.655 24.1145H159.192V22.9764ZM161.224 27.2152H159.192V25.7287H161.224C161.322 25.723 161.419 25.7388 161.509 25.7749C161.599 25.811 161.681 25.8666 161.747 25.9377C161.817 26.0059 161.872 26.0872 161.91 26.1769C161.947 26.2666 161.967 26.363 161.967 26.4603C161.967 26.5577 161.947 26.654 161.91 26.7438C161.872 26.8335 161.817 26.9148 161.747 26.9829C161.678 27.0588 161.594 27.1189 161.5 27.159C161.405 27.1991 161.304 27.2182 161.201 27.2152H161.224ZM160.655 21.1879H156.87V29.0036H161.108C161.572 29.0119 162.034 28.9492 162.479 28.8178C162.836 28.6999 163.173 28.5275 163.477 28.3069C163.725 28.1094 163.93 27.8646 164.081 27.5868C164.215 27.3491 164.287 27.0815 164.29 26.8087C164.304 26.4403 164.207 26.0763 164.012 25.7635C163.84 25.5275 163.632 25.3199 163.396 25.148C163.122 24.9723 162.82 24.8465 162.502 24.7764V24.5674C162.689 24.4899 162.864 24.3884 163.025 24.2654C163.166 24.1424 163.291 24.0019 163.396 23.8474C163.518 23.6446 163.574 23.4096 163.559 23.1738C163.554 22.9174 163.486 22.6662 163.361 22.4421C163.218 22.1887 163.024 21.9673 162.792 21.7918C162.518 21.5786 162.207 21.4173 161.875 21.3157C161.469 21.2106 161.05 21.1675 160.632 21.1879H160.655Z" fill="#1A1D2E"/>
<path d="M169.282 29.3438C169.8 29.3489 170.315 29.2624 170.803 29.0883C171.224 28.9388 171.617 28.7189 171.965 28.438C172.292 28.1824 172.568 27.8672 172.777 27.5089C172.989 27.1701 173.138 26.7966 173.219 26.4057L170.896 26.0805C170.771 26.4105 170.563 26.7025 170.292 26.9283C169.968 27.1981 169.552 27.3314 169.131 27.2999C168.889 27.3057 168.649 27.2497 168.434 27.1373C168.203 27.025 167.995 26.8715 167.819 26.6844C167.638 26.4881 167.503 26.254 167.424 25.9992C167.307 25.7155 167.248 25.4116 167.25 25.105C167.246 24.7944 167.306 24.4864 167.424 24.1991C167.508 23.9432 167.643 23.7065 167.819 23.5023C168.001 23.3259 168.208 23.1772 168.434 23.061C168.649 22.9486 168.889 22.8927 169.131 22.8984C169.486 22.885 169.837 22.9868 170.13 23.1888C170.404 23.3618 170.635 23.5964 170.803 23.874L173.126 23.5488C173.033 23.2018 172.884 22.8722 172.685 22.5733C172.465 22.2461 172.194 21.956 171.883 21.7139C171.53 21.4481 171.138 21.2367 170.722 21.0868C170.252 20.9386 169.763 20.8642 169.27 20.8661C168.726 20.8656 168.188 20.9804 167.691 21.2029C167.195 21.4223 166.746 21.7336 166.367 22.1204C165.989 22.5155 165.679 22.9707 165.449 23.4675C165.228 23.985 165.113 24.542 165.113 25.105C165.112 25.6643 165.227 26.2177 165.449 26.7308C165.68 27.2225 165.995 27.6704 166.379 28.0547C166.754 28.4486 167.204 28.7643 167.702 28.9838C168.196 29.2192 168.735 29.3422 169.282 29.3438Z" fill="#1A1D2E"/>
<path d="M180.094 25.1038V24.9412C180.241 24.9079 180.379 24.8447 180.5 24.7554C180.613 24.6705 180.708 24.5639 180.779 24.4418C180.878 24.299 180.927 24.1275 180.918 23.954V23.6289C180.913 23.4788 180.967 23.3327 181.069 23.2224C181.124 23.1672 181.189 23.1242 181.261 23.0962C181.333 23.0681 181.41 23.0558 181.487 23.0598H181.813V21.0856H181.313C180.61 21.0233 179.907 21.1992 179.316 21.5849C179.118 21.7524 178.96 21.9629 178.856 22.2004C178.751 22.4378 178.702 22.696 178.712 22.9553V23.4082C178.726 23.4968 178.719 23.5874 178.691 23.6726C178.663 23.7579 178.616 23.8354 178.552 23.8988C178.489 23.9622 178.411 24.0097 178.326 24.0374C178.241 24.0652 178.15 24.0724 178.062 24.0586H176.668V21.1901H174.345V29.0058H176.668V26.0793H178.224C178.313 26.0654 178.403 26.0726 178.489 26.1004C178.574 26.1282 178.651 26.1757 178.715 26.2391C178.778 26.3025 178.826 26.3799 178.853 26.4652C178.881 26.5504 178.888 26.641 178.875 26.7296V27.2987C178.864 27.5581 178.912 27.8165 179.017 28.0541C179.122 28.2917 179.28 28.5021 179.478 28.669C180.072 29.0605 180.779 29.2405 181.487 29.18H181.975V27.1361H181.65C181.577 27.1376 181.504 27.1239 181.436 27.096C181.368 27.068 181.306 27.0263 181.255 26.9735C181.199 26.9216 181.155 26.8587 181.125 26.7887C181.095 26.7187 181.08 26.6432 181.081 26.567V26.1606C181.088 25.98 181.039 25.8016 180.942 25.6496C180.837 25.5291 180.721 25.42 180.593 25.3244C180.441 25.2222 180.272 25.1475 180.094 25.1038Z" fill="#1A1D2E"/>
<path d="M183.138 21.1877V29.0035H185.46L188.224 24.8575H188.399V29.0035H190.721V21.1877H188.399L185.588 25.3453H185.426V21.1877H183.138Z" fill="#1A1D2E"/>
<path d="M196.179 19.919C196.494 19.9169 196.806 19.8538 197.097 19.7332C197.364 19.6258 197.605 19.4636 197.805 19.257C198.014 19.0477 198.18 18.7991 198.293 18.5254C198.405 18.2409 198.461 17.937 198.455 17.6312H196.992C196.998 17.7397 196.981 17.8482 196.943 17.95C196.905 18.0518 196.847 18.1448 196.772 18.2234C196.692 18.2974 196.599 18.3549 196.497 18.3928C196.396 18.4306 196.288 18.4481 196.179 18.4441C195.961 18.4496 195.749 18.3706 195.587 18.2234C195.437 18.063 195.354 17.851 195.355 17.6312H193.891C193.873 17.951 193.92 18.2712 194.031 18.5718C194.131 18.8464 194.289 19.0961 194.495 19.3035C194.707 19.507 194.955 19.6686 195.227 19.7796C195.531 19.8921 195.856 19.9395 196.179 19.919ZM192.359 21.0803V29.0006H194.681L197.515 24.8546H197.677V29.0006H200V21.1848H197.677L194.809 25.3424H194.646V21.1848L192.359 21.0803Z" fill="#1A1D2E"/>
<path d="M105.769 34.7633V42.5907H108.092V36.784H110.902V42.5907H113.225V34.7633H105.769Z" fill="#1A1D2E"/>
<path d="M118.813 42.9178C119.387 42.9172 119.956 42.8027 120.485 42.581C120.995 42.3582 121.46 42.0432 121.856 41.652C122.248 41.2708 122.564 40.8173 122.785 40.3164C123.014 39.8031 123.133 39.2471 123.133 38.6848C123.133 38.1224 123.014 37.5664 122.785 37.0531C122.564 36.5453 122.249 36.0841 121.856 35.6944C121.459 35.3104 120.994 35.0033 120.485 34.7885C119.958 34.559 119.388 34.4406 118.813 34.4406C118.238 34.4406 117.668 34.559 117.141 34.7885C116.628 35.0032 116.16 35.3102 115.759 35.6944C115.373 36.0902 115.059 36.5499 114.83 37.0531C114.608 37.5684 114.493 38.1237 114.493 38.6848C114.493 39.2459 114.608 39.8011 114.83 40.3164C115.058 40.8128 115.373 41.2649 115.759 41.652C116.16 42.0424 116.628 42.3571 117.141 42.581C117.67 42.8039 118.239 42.9185 118.813 42.9178ZM118.813 40.8855C118.547 40.8818 118.285 40.8183 118.047 40.6997C117.792 40.5997 117.565 40.4404 117.385 40.2352C117.203 40.0245 117.058 39.7851 116.955 39.5267C116.832 39.2609 116.769 38.9717 116.769 38.679C116.772 38.3829 116.836 38.0906 116.955 37.8196C117.066 37.5654 117.21 37.3271 117.385 37.1112C117.578 36.9204 117.801 36.7634 118.047 36.6467C118.287 36.5353 118.549 36.4798 118.813 36.4841C119.077 36.4809 119.339 36.5365 119.58 36.6467C119.821 36.7628 120.042 36.9199 120.23 37.1112C120.415 37.3235 120.568 37.5622 120.683 37.8196C120.795 38.0921 120.85 38.3845 120.845 38.679C120.853 38.97 120.798 39.2593 120.683 39.5267C120.576 39.7885 120.423 40.0285 120.23 40.2352C120.047 40.433 119.826 40.5911 119.58 40.6997C119.341 40.8172 119.079 40.8806 118.813 40.8855Z" fill="#1A1D2E"/>
<path d="M128.264 42.9139C128.789 42.9205 129.311 42.838 129.809 42.67C130.229 42.5182 130.621 42.2985 130.97 42.0197C131.294 41.7609 131.57 41.4462 131.783 41.0906C131.99 40.7499 132.139 40.377 132.224 39.9874L129.902 39.6506C129.784 39.9813 129.579 40.2742 129.309 40.4984C128.984 40.7671 128.57 40.9039 128.148 40.8816C127.906 40.8814 127.668 40.8258 127.451 40.719C127.221 40.6054 127.016 40.4475 126.847 40.2545C126.657 40.0636 126.517 39.8281 126.441 39.5693C126.317 39.288 126.257 38.9824 126.267 38.6751C126.258 38.3678 126.318 38.0625 126.441 37.7808C126.522 37.521 126.661 37.2828 126.847 37.0841C127.02 36.9017 127.225 36.7521 127.451 36.6427C127.666 36.5303 127.906 36.4744 128.148 36.4802C128.501 36.4603 128.849 36.5629 129.135 36.7705C129.369 36.955 129.56 37.189 129.693 37.4557L132.015 37.1305C131.922 36.7835 131.773 36.454 131.574 36.155C131.351 35.8266 131.081 35.5331 130.773 35.284C130.03 34.716 129.117 34.4171 128.183 34.4362C127.637 34.4342 127.098 34.5532 126.604 34.7846C126.109 35.0001 125.66 35.3074 125.28 35.6905C124.901 36.0897 124.591 36.5488 124.362 37.0492C124.14 37.5645 124.026 38.1197 124.026 38.6809C124.026 39.242 124.14 39.7972 124.362 40.3125C124.591 40.8058 124.901 41.2572 125.28 41.6481C125.658 42.0383 126.108 42.3536 126.604 42.5771C127.125 42.8112 127.693 42.9262 128.264 42.9139Z" fill="#1A1D2E"/>
<path d="M132.584 34.7633V36.8072H135.035V42.6139H137.358V36.8072H139.808V34.7633H132.584Z" fill="#1A1D2E"/>
<path d="M146.415 37.8672V39.493C146.288 39.7489 146.128 39.9871 145.939 40.2014C145.774 40.3802 145.587 40.5364 145.381 40.666C145.153 40.8139 144.887 40.8907 144.615 40.8866C144.363 40.8913 144.112 40.8406 143.881 40.7383C143.651 40.636 143.445 40.4845 143.279 40.2943C142.891 39.8497 142.695 39.2692 142.733 38.6801C142.701 38.0883 142.897 37.5067 143.279 37.0542C143.45 36.8713 143.657 36.7261 143.887 36.6281C144.117 36.5301 144.365 36.4814 144.615 36.4852C144.885 36.4769 145.152 36.5497 145.381 36.6942C145.585 36.8353 145.772 36.9989 145.939 37.182C146.122 37.392 146.282 37.6218 146.415 37.8672ZM140.457 38.6801C140.447 39.2606 140.553 39.8373 140.771 40.3756C140.963 40.8666 141.243 41.319 141.595 41.7112C141.925 42.0768 142.319 42.3797 142.757 42.6054C143.171 42.8134 143.629 42.9208 144.092 42.9189C144.425 42.9294 144.756 42.8741 145.068 42.7563C145.311 42.655 145.538 42.518 145.741 42.3499C145.931 42.1911 146.088 41.9981 146.206 41.7808H146.415V42.5938H148.738V34.7664H146.415V35.591H146.241C146.12 35.3721 145.963 35.1757 145.776 35.0103C145.569 34.8543 145.343 34.7255 145.103 34.6271C144.782 34.4964 144.438 34.4331 144.092 34.4412C143.621 34.4412 143.157 34.5485 142.733 34.7548C142.294 34.9724 141.9 35.272 141.572 35.6374C141.219 36.0338 140.94 36.49 140.748 36.9845C140.522 37.5213 140.408 38.098 140.411 38.6801H140.457Z" fill="#1A1D2E"/>
<path d="M152.722 37.7007L154.836 40.3137L156.961 37.7007H157.124V42.5899H159.446V34.7626H157.007L154.836 37.3407L152.722 34.7277H150.272V42.5551H152.594V37.7007H152.722Z" fill="#1A1D2E"/>
<path d="M166.657 37.8666V39.4925C166.538 39.7502 166.381 39.9889 166.192 40.2009C166.028 40.3796 165.84 40.5358 165.635 40.6654C165.407 40.8133 165.14 40.8901 164.868 40.886C164.616 40.8907 164.366 40.8401 164.135 40.7378C163.904 40.6355 163.699 40.4839 163.533 40.2938C163.342 40.0731 163.197 39.8169 163.105 39.5399C163.013 39.2629 162.977 38.9705 162.999 38.6795C162.963 38.0893 163.154 37.5079 163.533 37.0537C163.703 36.8707 163.91 36.7256 164.14 36.6275C164.37 36.5295 164.618 36.4808 164.868 36.4846C165.139 36.4764 165.406 36.5492 165.635 36.6937C165.838 36.8347 166.025 36.9983 166.192 37.1814C166.376 37.3889 166.532 37.6192 166.657 37.8666ZM160.711 38.6795C160.706 39.2595 160.813 39.8351 161.024 40.3751C161.217 40.866 161.496 41.3184 161.849 41.7106C162.177 42.0787 162.571 42.3821 163.01 42.6048C163.432 42.8164 163.898 42.9239 164.369 42.9184C164.702 42.9288 165.033 42.8736 165.345 42.7558C165.588 42.6544 165.815 42.5175 166.018 42.3493C166.211 42.1908 166.372 41.9979 166.494 41.7803H166.645V42.5932H168.968V34.7659H166.645V35.5904H166.506C166.381 35.3713 166.22 35.175 166.03 35.0097C165.823 34.8537 165.596 34.7249 165.356 34.6265C165.047 34.5005 164.715 34.4373 164.381 34.4407C163.91 34.4407 163.445 34.5479 163.022 34.7542C162.58 34.9688 162.186 35.2688 161.861 35.6368C161.508 36.0333 161.229 36.4895 161.036 36.984C160.82 37.5232 160.71 38.0988 160.711 38.6795Z" fill="#1A1D2E"/>
<path d="M169.922 34.7633V36.8072H172.372V42.6139H174.695V36.8072H177.133V34.7633H169.922Z" fill="#1A1D2E"/>
<path d="M24.8963 17.5963H0V42.4925H24.8963V17.5963Z" fill="#F62E46"/>
<path d="M42.495 0L24.8965 17.5986L42.495 35.2076L60.1041 17.5986L42.495 0Z" fill="#F62E46"/>
<path d="M85.0538 17.5963H60.105V42.4925H85.0538V17.5963Z" fill="#F62E46"/>
</svg>
