<svg width="721" height="625" viewBox="0 0 721 625" fill="none" xmlns="http://www.w3.org/2000/svg">
<path d="M563.427 624.237C542.893 624.237 521.231 622.652 498.666 619.495C459.767 614.049 419.348 604.039 378.532 589.744C333.53 573.978 288.301 553.062 244.142 527.592C195.506 499.528 147.755 465.682 102.219 426.999L175.686 340.549L178.367 342.818C132.545 302.157 85.1676 254.262 37.1287 197.786L0 154.138L100.741 70.1846L137.347 108.724C178.526 152.077 220.091 190.442 260.888 222.757C273.703 232.912 286.576 242.577 299.506 251.751C284.69 239.314 270.297 226.153 256.327 212.267C231.406 187.493 207.369 159.901 184.891 130.261L147.539 81.004L275.901 0L307.894 30.0683C323.015 44.283 339.412 57.0749 356.878 68.2823C381.298 83.9585 407.699 96.3086 435.383 105.006C475.261 117.505 525.739 121.343 581.356 116.106C628.249 111.689 666.664 101.905 680.418 97.3484L716.098 205.044C692.114 212.985 645.221 224.043 591.99 229.057C560.266 232.045 529.449 232.635 500.398 230.812C488.168 230.056 476.225 228.859 464.57 227.223C485.206 238.223 506.531 247.878 528.412 256.127C619.487 290.54 712.762 298.928 793.04 304.094L836.742 306.904L864.84 451.716L814.725 465.946C796 471.261 776.991 475.515 757.787 478.691C738.107 481.935 718.43 484.29 698.755 485.755C712.316 495.277 718.756 507.186 721.823 516.009C728.528 535.386 724.777 556.775 711.791 573.229C699.897 588.292 682.672 600.257 660.617 608.777C642.971 615.603 622.255 620.232 599.051 622.539C587.612 623.668 575.738 624.234 563.427 624.237Z" fill="#E52C3D"/>
</svg>
