<svg width="188" height="111" viewBox="0 0 188 111" fill="none" xmlns="http://www.w3.org/2000/svg">
<path d="M25.4172 18.3406H0.270996V43.4868H25.4172V18.3406Z" fill="white"/>
<path d="M43.1985 0.559691L25.4177 18.3406L43.1985 36.1215L60.9794 18.3406L43.1985 0.559691Z" fill="white"/>
<path d="M86.128 18.3406H60.9818V43.4868H86.128V18.3406Z" fill="white"/>
<path d="M5.95922 66.9546L12.9476 75.565L19.936 66.9546H20.261V82.7132H25.2992V59.9688H19.7735L12.9476 68.4167L6.12174 59.9688H0.596037V82.7132H5.63417V66.9546H5.95922Z" fill="white"/>
<path d="M36.8343 83.363C38.0045 83.363 39.1096 83.1356 40.1822 82.6807C41.2224 82.2258 42.1325 81.6085 42.9126 80.8287C43.6927 80.0814 44.3103 79.1716 44.7653 78.1643C45.2204 77.1571 45.4479 76.0524 45.4479 74.9151C45.4479 73.7779 45.2204 72.7057 44.7653 71.6659C44.3103 70.6587 43.6927 69.7489 42.9126 68.9691C42.1325 68.2218 41.2224 67.6044 40.1822 67.1496C39.1096 66.6947 38.0045 66.4672 36.8343 66.4672C35.6642 66.4672 34.559 66.6947 33.5189 67.1496C32.4463 67.6044 31.5361 68.2218 30.756 68.9691C29.9759 69.7489 29.3584 70.6587 28.9033 71.6659C28.4482 72.7057 28.2207 73.7779 28.2207 74.9151C28.2207 76.0524 28.4482 77.1571 28.9033 78.1643C29.3584 79.1716 29.9759 80.0814 30.756 80.8287C31.5361 81.6085 32.4463 82.2258 33.5189 82.6807C34.559 83.1356 35.6642 83.363 36.8343 83.363ZM36.8343 79.3015C36.3142 79.3015 35.7942 79.1716 35.3066 78.9441C34.8191 78.7492 34.364 78.4243 34.0065 78.0019C33.6489 77.612 33.3564 77.1571 33.1288 76.6047C32.9013 76.0848 32.7713 75.5325 32.7713 74.9151C32.7713 74.2978 32.9013 73.7454 33.1288 73.1931C33.3564 72.6732 33.6489 72.2183 34.0065 71.7959C34.364 71.406 34.8191 71.0811 35.3066 70.8536C35.7942 70.6262 36.3142 70.5287 36.8343 70.5287C37.3544 70.5287 37.8744 70.6262 38.362 70.8536C38.8496 71.0811 39.3046 71.406 39.6622 71.7959C40.0197 72.2183 40.3448 72.6732 40.5723 73.1931C40.7998 73.7454 40.8973 74.2978 40.8973 74.9151C40.8973 75.5325 40.7998 76.0848 40.5723 76.6047C40.3448 77.1571 40.0197 77.612 39.6622 78.0019C39.3046 78.4243 38.8496 78.7167 38.362 78.9441C37.8744 79.1716 37.3544 79.3015 36.8343 79.3015Z" fill="white"/>
<path d="M55.6816 83.363C56.8193 83.363 57.8269 83.2006 58.7695 82.8757C59.6796 82.5507 60.4597 82.1283 61.1423 81.576C61.7924 81.0561 62.345 80.4388 62.7675 79.7239C63.1901 79.0416 63.4826 78.2943 63.6451 77.5145L59.0945 76.8646C58.867 77.5145 58.4445 78.0669 57.8919 78.5542C57.3393 79.0416 56.5917 79.3015 55.6816 79.3015C55.1941 79.3015 54.7065 79.2041 54.2839 78.9766C53.8289 78.7492 53.4388 78.4568 53.0813 78.0669C52.7237 77.7094 52.4637 77.2546 52.2687 76.7022C52.0412 76.1498 51.9436 75.565 51.9436 74.9151C51.9436 74.2653 52.0412 73.6804 52.2687 73.1281C52.4637 72.5757 52.7237 72.1208 53.0813 71.7309C53.4388 71.3735 53.8289 71.0811 54.2839 70.8536C54.7065 70.6262 55.1941 70.5287 55.6816 70.5287C56.4942 70.5287 57.1768 70.7237 57.6644 71.1136C58.1519 71.536 58.542 71.9909 58.7695 72.4782L63.3201 71.8284C63.1576 71.1786 62.865 70.5287 62.4425 69.8789C62.0199 69.2615 61.4998 68.6767 60.8498 68.1568C60.1997 67.6694 59.4521 67.247 58.5745 66.9221C57.6969 66.6297 56.7542 66.4672 55.6816 66.4672C54.5765 66.4672 53.5363 66.6947 52.5287 67.1496C51.5211 67.6044 50.6435 68.2218 49.8959 68.9691C49.1483 69.7489 48.5307 70.6587 48.0756 71.6659C47.6206 72.7057 47.3931 73.7779 47.3931 74.9151C47.3931 76.0524 47.6206 77.1571 48.0756 78.1643C48.5307 79.1716 49.1483 80.0814 49.8959 80.8287C50.6435 81.6085 51.5211 82.2258 52.5287 82.6807C53.5363 83.1356 54.5765 83.363 55.6816 83.363Z" fill="white"/>
<path d="M77.2905 74.9151V74.5902C77.583 74.5252 77.8756 74.3953 78.1031 74.2328C78.2981 74.0703 78.4931 73.8754 78.6557 73.6155C78.8182 73.388 78.9157 73.0631 78.9157 72.6407V71.9909C78.9157 71.6659 79.0132 71.406 79.2407 71.1786C79.4683 70.9511 79.7283 70.8536 80.0533 70.8536H80.7034V66.7921H79.7283C77.8756 66.7921 76.5429 67.1171 75.7303 67.7994C74.9177 68.4817 74.5276 69.3915 74.5276 70.5287V71.5035C74.5276 72.3808 74.1051 72.8032 73.2275 72.8032H70.4646V67.1171H65.9141V82.7132H70.4646V76.8646H73.5525C74.4301 76.8646 74.8527 77.287 74.8527 78.1643V79.3015C74.8527 80.4388 75.2427 81.3485 76.0553 82.0309C76.8679 82.7132 78.2006 83.0381 80.0533 83.0381H81.0285V78.9766H80.3784C80.0533 78.9766 79.7933 78.8791 79.5658 78.6517C79.3382 78.4243 79.2407 78.1643 79.2407 77.8394V77.0271C79.2407 76.6047 79.1432 76.2798 78.9482 76.0199C78.7207 75.7599 78.4931 75.5325 78.2656 75.37C77.9731 75.1751 77.648 75.0126 77.2905 74.9151Z" fill="white"/>
<path d="M90.9549 83.363C92.1251 83.363 93.2302 83.1356 94.3028 82.6807C95.343 82.2258 96.2531 81.6085 97.0332 80.8287C97.8133 80.0814 98.4309 79.1716 98.8859 78.1643C99.341 77.1571 99.5685 76.0524 99.5685 74.9151C99.5685 73.7779 99.341 72.7057 98.8859 71.6659C98.4309 70.6587 97.8133 69.7489 97.0332 68.9691C96.2531 68.2218 95.343 67.6044 94.3028 67.1496C93.2302 66.6947 92.1251 66.4672 90.9549 66.4672C89.7848 66.4672 88.6796 66.6947 87.6395 67.1496C86.5669 67.6044 85.6567 68.2218 84.8766 68.9691C84.0965 69.7489 83.479 70.6587 83.0239 71.6659C82.5689 72.7057 82.3413 73.7779 82.3413 74.9151C82.3413 76.0524 82.5689 77.1571 83.0239 78.1643C83.479 79.1716 84.0965 80.0814 84.8766 80.8287C85.6567 81.6085 86.5669 82.2258 87.6395 82.6807C88.6796 83.1356 89.7848 83.363 90.9549 83.363ZM90.9549 79.3015C90.4349 79.3015 89.9148 79.1716 89.4272 78.9441C88.9397 78.7492 88.4846 78.4243 88.1271 78.0019C87.7695 77.612 87.477 77.1571 87.2494 76.6047C87.0219 76.0848 86.8919 75.5325 86.8919 74.9151C86.8919 74.2978 87.0219 73.7454 87.2494 73.1931C87.477 72.6732 87.7695 72.2183 88.1271 71.7959C88.4846 71.406 88.9397 71.0811 89.4272 70.8536C89.9148 70.6262 90.4349 70.5287 90.9549 70.5287C91.475 70.5287 91.995 70.6262 92.4826 70.8536C92.9702 71.0811 93.4252 71.406 93.7828 71.7959C94.1403 72.2183 94.4654 72.6732 94.6929 73.1931C94.9204 73.7454 95.0179 74.2978 95.0179 74.9151C95.0179 75.5325 94.9204 76.0848 94.6929 76.6047C94.4654 77.1571 94.1403 77.612 93.7828 78.0019C93.4252 78.4243 92.9702 78.7167 92.4826 78.9441C91.995 79.1716 91.475 79.3015 90.9549 79.3015Z" fill="white"/>
<path d="M106.714 70.6912H109.64C109.965 70.6912 110.225 70.7887 110.452 71.0161C110.68 71.2435 110.777 71.5035 110.777 71.8284C110.777 72.1533 110.68 72.4133 110.452 72.6407C110.225 72.8681 109.965 72.9656 109.64 72.9656H106.714V70.6912ZM110.777 79.1391H106.714V76.2148H110.777C111.2 76.2148 111.525 76.3448 111.817 76.6372C112.11 76.9296 112.24 77.2546 112.24 77.677C112.24 78.0993 112.11 78.4243 111.817 78.7167C111.525 79.0091 111.2 79.1391 110.777 79.1391ZM109.64 67.1171H102.164V82.7132H110.615C111.622 82.7132 112.533 82.5832 113.345 82.3233C114.125 82.0634 114.775 81.7384 115.328 81.316C115.848 80.8937 116.238 80.4388 116.531 79.8864C116.823 79.3665 116.953 78.8467 116.953 78.3268C116.953 77.482 116.758 76.7997 116.401 76.2473C116.011 75.7274 115.588 75.305 115.165 75.0126C114.613 74.6552 114.028 74.4278 113.378 74.2653V73.9404C113.768 73.7779 114.125 73.583 114.418 73.3555C114.678 73.1281 114.938 72.8681 115.165 72.5107C115.393 72.1533 115.49 71.7309 115.49 71.1786C115.49 70.6912 115.36 70.2038 115.1 69.7164C114.84 69.229 114.45 68.8066 113.963 68.4167C113.475 68.0268 112.858 67.7019 112.143 67.4745C111.395 67.247 110.582 67.1171 109.64 67.1171Z" fill="white"/>
<path d="M126.88 83.363C128.017 83.363 129.025 83.2006 129.967 82.8757C130.878 82.5507 131.658 82.1283 132.34 81.576C132.99 81.0561 133.543 80.4388 133.965 79.7239C134.388 79.0416 134.681 78.2943 134.843 77.5145L130.292 76.8646C130.065 77.5145 129.642 78.0669 129.09 78.5542C128.537 79.0416 127.79 79.3015 126.88 79.3015C126.392 79.3015 125.904 79.2041 125.482 78.9766C125.027 78.7492 124.637 78.4568 124.279 78.0669C123.922 77.7094 123.662 77.2546 123.467 76.7022C123.239 76.1498 123.142 75.565 123.142 74.9151C123.142 74.2653 123.239 73.6804 123.467 73.1281C123.662 72.5757 123.922 72.1208 124.279 71.7309C124.637 71.3735 125.027 71.0811 125.482 70.8536C125.904 70.6262 126.392 70.5287 126.88 70.5287C127.692 70.5287 128.375 70.7237 128.862 71.1136C129.35 71.536 129.74 71.9909 129.967 72.4782L134.518 71.8284C134.356 71.1786 134.063 70.5287 133.64 69.8789C133.218 69.2615 132.698 68.6767 132.048 68.1568C131.398 67.6694 130.65 67.247 129.772 66.9221C128.895 66.6297 127.952 66.4672 126.88 66.4672C125.774 66.4672 124.734 66.6947 123.727 67.1496C122.719 67.6044 121.841 68.2218 121.094 68.9691C120.346 69.7489 119.729 70.6587 119.274 71.6659C118.819 72.7057 118.591 73.7779 118.591 74.9151C118.591 76.0524 118.819 77.1571 119.274 78.1643C119.729 79.1716 120.346 80.0814 121.094 80.8287C121.841 81.6085 122.719 82.2258 123.727 82.6807C124.734 83.1356 125.774 83.363 126.88 83.363Z" fill="white"/>
<path d="M148.488 74.9151V74.5902C148.781 74.5252 149.074 74.3953 149.301 74.2328C149.496 74.0703 149.691 73.8754 149.854 73.6155C150.016 73.388 150.114 73.0631 150.114 72.6407V71.9909C150.114 71.6659 150.211 71.406 150.439 71.1786C150.666 70.9511 150.926 70.8536 151.251 70.8536H151.901V66.7921H150.926C149.074 66.7921 147.741 67.1171 146.928 67.7994C146.116 68.4817 145.726 69.3915 145.726 70.5287V71.5035C145.726 72.3808 145.303 72.8032 144.425 72.8032H141.663V67.1171H137.112V82.7132H141.663V76.8646H144.75C145.628 76.8646 146.051 77.287 146.051 78.1643V79.3015C146.051 80.4388 146.441 81.3485 147.253 82.0309C148.066 82.7132 149.399 83.0381 151.251 83.0381H152.226V78.9766H151.576C151.251 78.9766 150.991 78.8791 150.764 78.6517C150.536 78.4243 150.439 78.1643 150.439 77.8394V77.0271C150.439 76.6047 150.341 76.2798 150.146 76.0199C149.919 75.7599 149.691 75.5325 149.464 75.37C149.171 75.1751 148.846 75.0126 148.488 74.9151Z" fill="white"/>
<path d="M154.507 67.1171V82.7132H159.057L164.746 74.4278H165.071V82.7132H169.621V67.1171H165.071L159.382 75.4025H159.057V67.1171H154.507Z" fill="white"/>
<path d="M180.492 64.6802C181.142 64.6802 181.759 64.5502 182.312 64.3228C182.864 64.0953 183.319 63.8029 183.742 63.3805C184.165 62.9581 184.49 62.4707 184.717 61.9184C184.945 61.366 185.042 60.7811 185.042 60.1313H182.117C182.117 60.6187 181.987 61.0086 181.694 61.301C181.402 61.5934 180.979 61.7559 180.492 61.7559C180.004 61.7559 179.614 61.5934 179.321 61.301C179.029 61.0086 178.866 60.6187 178.866 60.1313H175.941C175.941 60.7811 176.071 61.366 176.299 61.9184C176.526 62.4707 176.819 62.9581 177.241 63.3805C177.664 63.8029 178.151 64.0953 178.704 64.3228C179.256 64.5502 179.841 64.6802 180.492 64.6802ZM172.886 67.1171V82.7132H177.436L183.124 74.4278H183.449V82.7132H188V67.1171H183.449L177.761 75.4025H177.436V67.1171H172.886Z" fill="white"/>
<path d="M0.270996 94.1937V109.79H4.82157V98.2552H10.5098V109.79H15.0604V94.1937H0.270996Z" fill="white"/>
<path d="M26.2641 110.44C27.4343 110.44 28.5394 110.212 29.6121 109.757C30.6522 109.302 31.5623 108.685 32.3424 107.905C33.1225 107.158 33.7401 106.248 34.1951 105.241C34.6502 104.234 34.8777 103.129 34.8777 101.992C34.8777 100.855 34.6502 99.7823 34.1951 98.7426C33.7401 97.7353 33.1225 96.8255 32.3424 96.0457C31.5623 95.2984 30.6522 94.6811 29.6121 94.2262C28.5394 93.7713 27.4343 93.5438 26.2641 93.5438C25.094 93.5438 23.9888 93.7713 22.9487 94.2262C21.8761 94.6811 20.966 95.2984 20.1859 96.0457C19.4058 96.8255 18.7882 97.7353 18.3331 98.7426C17.8781 99.7823 17.6505 100.855 17.6505 101.992C17.6505 103.129 17.8781 104.234 18.3331 105.241C18.7882 106.248 19.4058 107.158 20.1859 107.905C20.966 108.685 21.8761 109.302 22.9487 109.757C23.9888 110.212 25.094 110.44 26.2641 110.44ZM26.2641 106.378C25.7441 106.378 25.224 106.248 24.7364 106.021C24.2489 105.826 23.7938 105.501 23.4363 105.078C23.0787 104.689 22.7862 104.234 22.5587 103.681C22.3311 103.161 22.2011 102.609 22.2011 101.992C22.2011 101.374 22.3311 100.822 22.5587 100.27C22.7862 99.7498 23.0787 99.2949 23.4363 98.8725C23.7938 98.4826 24.2489 98.1577 24.7364 97.9303C25.224 97.7028 25.7441 97.6053 26.2641 97.6053C26.7842 97.6053 27.3043 97.7028 27.7918 97.9303C28.2794 98.1577 28.7344 98.4826 29.092 98.8725C29.4495 99.2949 29.7746 99.7498 30.0021 100.27C30.2296 100.822 30.3271 101.374 30.3271 101.992C30.3271 102.609 30.2296 103.161 30.0021 103.681C29.7746 104.234 29.4495 104.689 29.092 105.078C28.7344 105.501 28.2794 105.793 27.7918 106.021C27.3043 106.248 26.7842 106.378 26.2641 106.378Z" fill="white"/>
<path d="M45.1114 110.44C46.2491 110.44 47.2567 110.277 48.1993 109.952C49.1094 109.627 49.8895 109.205 50.5721 108.653C51.2222 108.133 51.7748 107.515 52.1973 106.801C52.6199 106.118 52.9124 105.371 53.0749 104.591L48.5244 103.941C48.2968 104.591 47.8743 105.143 47.3217 105.631C46.7691 106.118 46.0215 106.378 45.1114 106.378C44.6239 106.378 44.1363 106.281 43.7138 106.053C43.2587 105.826 42.8686 105.533 42.5111 105.143C42.1536 104.786 41.8935 104.331 41.6985 103.779C41.471 103.226 41.3735 102.642 41.3735 101.992C41.3735 101.342 41.471 100.757 41.6985 100.205C41.8935 99.6523 42.1536 99.1974 42.5111 98.8075C42.8686 98.4501 43.2587 98.1577 43.7138 97.9303C44.1363 97.7028 44.6239 97.6053 45.1114 97.6053C45.924 97.6053 46.6066 97.8003 47.0942 98.1902C47.5817 98.6126 47.9718 99.0675 48.1993 99.5549L52.7499 98.905C52.5874 98.2552 52.2948 97.6053 51.8723 96.9555C51.4497 96.3382 50.9297 95.7533 50.2796 95.2334C49.6295 94.746 48.8819 94.3237 48.0043 93.9987C47.1267 93.7063 46.1841 93.5438 45.1114 93.5438C44.0063 93.5438 42.9662 93.7713 41.9585 94.2262C40.9509 94.6811 40.0733 95.2984 39.3257 96.0457C38.5781 96.8255 37.9605 97.7353 37.5055 98.7426C37.0504 99.7823 36.8229 100.855 36.8229 101.992C36.8229 103.129 37.0504 104.234 37.5055 105.241C37.9605 106.248 38.5781 107.158 39.3257 107.905C40.0733 108.685 40.9509 109.302 41.9585 109.757C42.9662 110.212 44.0063 110.44 45.1114 110.44Z" fill="white"/>
<path d="M53.7263 94.1937V98.2552H58.6019V109.79H63.1525V98.2552H68.0281V94.1937H53.7263Z" fill="white"/>
<path d="M81.191 100.367V103.616C80.931 104.169 80.6059 104.624 80.2484 105.013C79.9558 105.371 79.5658 105.663 79.1432 105.956C78.6882 106.248 78.1681 106.378 77.6155 106.378C76.5429 106.378 75.6653 105.988 74.9502 105.208C74.2351 104.461 73.8776 103.389 73.8776 101.992C73.8776 100.595 74.2351 99.5224 74.9502 98.7426C75.6653 97.9952 76.5429 97.6053 77.6155 97.6053C78.1681 97.6053 78.6882 97.7353 79.1432 98.0277C79.5658 98.3202 79.9558 98.6451 80.2484 99.0025C80.6059 99.3924 80.931 99.8473 81.191 100.367ZM69.327 101.992C69.327 103.194 69.522 104.331 69.9446 105.371C70.3671 106.411 70.9197 107.288 71.6023 108.035C72.2849 108.783 73.065 109.367 73.9426 109.822C74.8202 110.245 75.6978 110.44 76.6404 110.44C77.388 110.44 78.0381 110.342 78.5907 110.115C79.1432 109.887 79.5658 109.595 79.9233 109.302C80.3134 108.978 80.6384 108.588 80.8659 108.165H81.191V109.79H85.7416V94.1937H81.191V95.8183H80.8659C80.6384 95.3959 80.3134 95.0385 79.9233 94.6811C79.5658 94.3886 79.1432 94.1287 78.5907 93.9013C78.0381 93.6738 77.388 93.5438 76.6404 93.5438C75.6978 93.5438 74.8202 93.7388 73.9426 94.1612C73.065 94.5836 72.2849 95.1684 71.6023 95.9158C70.9197 96.6631 70.3671 97.5728 69.9446 98.6126C69.522 99.6523 69.327 100.79 69.327 101.992Z" fill="white"/>
<path d="M93.8663 100.042L98.0919 105.241L102.317 100.042H102.642V109.79H107.193V94.1937H102.317L98.0919 99.3924L93.8663 94.1937H88.9907V109.79H93.5413V100.042H93.8663Z" fill="white"/>
<path d="M121.662 100.367V103.616C121.402 104.169 121.077 104.624 120.72 105.013C120.427 105.371 120.037 105.663 119.615 105.956C119.16 106.248 118.64 106.378 118.087 106.378C117.014 106.378 116.137 105.988 115.422 105.208C114.707 104.461 114.349 103.389 114.349 101.992C114.349 100.595 114.707 99.5224 115.422 98.7426C116.137 97.9952 117.014 97.6053 118.087 97.6053C118.64 97.6053 119.16 97.7353 119.615 98.0277C120.037 98.3202 120.427 98.6451 120.72 99.0025C121.077 99.3924 121.402 99.8473 121.662 100.367ZM109.798 101.992C109.798 103.194 109.993 104.331 110.416 105.371C110.839 106.411 111.391 107.288 112.074 108.035C112.756 108.783 113.536 109.367 114.414 109.822C115.292 110.245 116.169 110.44 117.112 110.44C117.859 110.44 118.51 110.342 119.062 110.115C119.615 109.887 120.037 109.595 120.395 109.302C120.785 108.978 121.11 108.588 121.337 108.165H121.662V109.79H126.213V94.1937H121.662V95.8183H121.337C121.11 95.3959 120.785 95.0385 120.395 94.6811C120.037 94.3886 119.615 94.1287 119.062 93.9013C118.51 93.6738 117.859 93.5438 117.112 93.5438C116.169 93.5438 115.292 93.7388 114.414 94.1612C113.536 94.5836 112.756 95.1684 112.074 95.9158C111.391 96.6631 110.839 97.5728 110.416 98.6126C109.993 99.6523 109.798 100.79 109.798 101.992Z" fill="white"/>
<path d="M128.162 94.1937V98.2552H133.038V109.79H137.588V98.2552H142.464V94.1937H128.162Z" fill="white"/>
</svg>
